<svg width="19" height="20" viewBox="0 0 19 20" fill="none" xmlns="http://www.w3.org/2000/svg">
<path d="M12.9432 16.4756L13.0915 16.0799L12.7261 15.8676L5.15114 11.4676L4.79646 11.2616L4.52508 11.5692C4.32289 11.7983 4.07018 11.988 3.75963 12.1363C3.45611 12.2811 3.15437 12.35 2.85 12.35C2.20046 12.35 1.65646 12.1244 1.19105 11.6589C0.725644 11.1935 0.5 10.6495 0.5 10C0.5 9.33079 0.727653 8.78506 1.18839 8.3312C1.65323 7.8733 2.19805 7.65 2.85 7.65C3.16609 7.65 3.46571 7.71143 3.75304 7.83457C4.04155 7.95822 4.30571 8.13781 4.54645 8.37855L4.81709 8.64919L5.14899 8.45859L12.724 4.10859L13.1098 3.88701L12.9346 3.47804C12.9031 3.40454 12.8754 3.31085 12.8557 3.1928C12.8346 3.06626 12.825 2.95228 12.825 2.85C12.825 2.18079 13.0527 1.63506 13.5134 1.1812C13.9782 0.723295 14.523 0.5 15.175 0.5C15.8466 0.5 16.3932 0.725272 16.8464 1.17855C17.2997 1.63183 17.525 2.17838 17.525 2.85C17.525 3.50195 17.3017 4.04677 16.8438 4.51162C16.3899 4.97235 15.8442 5.2 15.175 5.2C14.8472 5.2 14.532 5.14674 14.2272 5.0404C13.9495 4.94354 13.7179 4.78787 13.5249 4.56919L13.259 4.26784L12.9075 4.46272L5.33255 8.66272L4.99683 8.84886L5.08993 9.22127C5.11811 9.33401 5.14431 9.47069 5.16753 9.63321C5.1907 9.7954 5.2 9.91572 5.2 10C5.2 10.0812 5.19126 10.1751 5.17106 10.2829C5.14792 10.4063 5.12088 10.5299 5.08993 10.6537L4.99779 11.0223L5.32817 11.2098L12.9032 15.5098L13.2226 15.6912L13.4912 15.4405C13.6961 15.2493 13.9377 15.0929 14.2206 14.9727C14.4812 14.8619 14.7959 14.8 15.175 14.8C15.8466 14.8 16.3932 15.0253 16.8464 15.4786C17.2997 15.9318 17.525 16.4784 17.525 17.15C17.525 17.802 17.3017 18.3468 16.8438 18.8116C16.3899 19.2723 15.8442 19.5 15.175 19.5C14.5255 19.5 13.9815 19.2744 13.5161 18.8089C13.0506 18.3435 12.825 17.7995 12.825 17.15C12.825 17.0671 12.8341 16.9568 12.8564 16.8155C12.8768 16.6864 12.9064 16.5737 12.9432 16.4756ZM15.175 4.7C15.6837 4.7 16.1339 4.52317 16.4911 4.16605C16.8482 3.80893 17.025 3.35867 17.025 2.85C17.025 2.34133 16.8482 1.89107 16.4911 1.53395C16.1339 1.17683 15.6837 1 15.175 1C14.6663 1 14.2161 1.17683 13.8589 1.53395C13.5018 1.89107 13.325 2.34133 13.325 2.85C13.325 3.35867 13.5018 3.80893 13.8589 4.16605C14.2161 4.52317 14.6663 4.7 15.175 4.7ZM2.85 11.85C3.35867 11.85 3.80893 11.6732 4.16605 11.3161C4.52317 10.9589 4.7 10.5087 4.7 10C4.7 9.49133 4.52317 9.04107 4.16605 8.68395C3.80893 8.32683 3.35867 8.15 2.85 8.15C2.34133 8.15 1.89107 8.32683 1.53395 8.68395C1.17683 9.04107 1 9.49133 1 10C1 10.5087 1.17683 10.9589 1.53395 11.3161C1.89107 11.6732 2.34133 11.85 2.85 11.85ZM15.175 19C15.6837 19 16.1339 18.8232 16.4911 18.4661C16.8482 18.1089 17.025 17.6587 17.025 17.15C17.025 16.6413 16.8482 16.1911 16.4911 15.8339C16.1339 15.4768 15.6837 15.3 15.175 15.3C14.6663 15.3 14.2161 15.4768 13.8589 15.8339C13.5018 16.1911 13.325 16.6413 13.325 17.15C13.325 17.6587 13.5018 18.1089 13.8589 18.4661C14.2161 18.8232 14.6663 19 15.175 19Z" fill="black" fill-opacity="0.8" stroke="black"/>
</svg>
