<svg width="35" height="24" viewBox="0 0 35 24" fill="none" xmlns="http://www.w3.org/2000/svg">
<path d="M1.88395 0H32.6167C33.6556 0.00561535 34.5007 0.856341 34.5007 1.89518V22.1048C34.5007 23.1465 33.6472 24 32.6055 24H1.88395C0.847918 23.9944 0 23.1437 0 22.1048V1.89518C0 0.856341 0.84511 0.00561535 1.88395 0Z" fill="#FF9933"/>
<path d="M0 7.99908H34.5007V16.001H0V7.99908Z" fill="white"/>
<path d="M0 16.0009H34.5007V22.1048C34.5007 23.1464 33.6472 24 32.6055 24H1.88395C0.847918 23.9944 0 23.1436 0 22.1048V16.0009Z" fill="#128807"/>
<path d="M20.4503 12C20.4503 10.2312 19.0184 8.79926 17.2496 8.79926C15.4807 8.79926 14.0488 10.2312 14.0488 12C14.0488 13.766 15.4807 15.2008 17.2496 15.2008C19.0184 15.2008 20.4503 13.7688 20.4503 12Z" fill="#000088"/>
<path d="M20.0497 12C20.0497 10.453 18.7975 9.20074 17.2504 9.20074C15.7034 9.20074 14.4512 10.453 14.4512 12C14.4512 13.547 15.7034 14.7992 17.2504 14.7992C18.7975 14.7992 20.0497 13.547 20.0497 12Z" fill="white"/>
<path d="M17.8089 12C17.8089 11.6912 17.559 11.4385 17.2501 11.4385C16.9413 11.4385 16.6914 11.6884 16.6914 12C16.6914 12.3089 16.9413 12.5587 17.2501 12.5587C17.559 12.5587 17.8089 12.3089 17.8089 12Z" fill="#000088"/>
<path d="M20.1642 12.3847C20.1754 12.3089 20.1192 12.2387 20.0434 12.2274C19.9676 12.2162 19.8974 12.2724 19.8862 12.3482C19.875 12.424 19.9311 12.4942 20.0069 12.5054C20.0855 12.5138 20.1557 12.4605 20.1642 12.3847Z" fill="#000088"/>
<path d="M17.2498 14.7992L17.3452 13.1203L17.2498 12.3201L17.1543 13.1203L17.2498 14.7992Z" fill="#000088"/>
<path d="M19.9647 13.1259C19.9956 13.0557 19.9591 12.9715 19.8889 12.9434C19.8187 12.9125 19.7345 12.949 19.7064 13.0192C19.6755 13.0894 19.712 13.1736 19.7822 13.2017C19.8552 13.2298 19.9366 13.1961 19.9647 13.1259Z" fill="black"/>
<path d="M16.5254 14.7038L17.0532 13.1062L17.1683 12.3088L16.8679 13.0585L16.5254 14.7038Z" fill="black"/>
<path d="M19.5834 13.7913C19.6311 13.7295 19.6199 13.6425 19.5581 13.5947C19.4964 13.547 19.4093 13.5582 19.3616 13.62C19.3139 13.6818 19.3251 13.7688 19.3869 13.8166C19.4486 13.8643 19.5357 13.8502 19.5834 13.7913Z" fill="black"/>
<path d="M15.8496 14.4258L16.7733 13.0192L17.0906 12.278L16.6077 12.9209L15.8496 14.4258Z" fill="black"/>
<path d="M19.0386 14.3332C19.1004 14.2854 19.1116 14.1984 19.0639 14.1366C19.0161 14.0749 18.9291 14.0636 18.8673 14.1114C18.8056 14.1591 18.7943 14.2461 18.8421 14.3079C18.8898 14.3668 18.9796 14.3809 19.0386 14.3332Z" fill="black"/>
<path d="M15.2715 13.9794L16.5265 12.8591L17.0235 12.2274L16.3917 12.7244L15.2715 13.9794Z" fill="black"/>
<path d="M18.3772 14.7179C18.4473 14.687 18.4838 14.6055 18.453 14.5354C18.4221 14.4652 18.3407 14.4287 18.2705 14.4595C18.2003 14.4876 18.1638 14.5719 18.1947 14.642C18.2227 14.7122 18.3042 14.7459 18.3772 14.7179Z" fill="black"/>
<path d="M14.8242 13.401L16.3291 12.643L16.9721 12.16L16.2309 12.4773L14.8242 13.401Z" fill="black"/>
<path d="M17.6347 14.9144C17.7105 14.9032 17.7638 14.833 17.7554 14.7572C17.7442 14.6814 17.674 14.628 17.5982 14.6364C17.5224 14.6477 17.469 14.7179 17.4774 14.7937C17.4859 14.8723 17.5561 14.9256 17.6347 14.9144Z" fill="black"/>
<path d="M14.5469 12.7244L16.195 12.3818L16.9418 12.0842L16.1444 12.1965L14.5469 12.7244Z" fill="black"/>
<path d="M16.8657 14.9143C16.9416 14.9256 17.0117 14.8694 17.023 14.7936C17.0342 14.7178 16.9781 14.6476 16.9022 14.6364C16.8264 14.6252 16.7562 14.6813 16.745 14.7571C16.7366 14.8357 16.7899 14.9059 16.8657 14.9143Z" fill="black"/>
<path d="M14.4512 12L16.1302 12.0955L16.9303 12L16.1302 11.9045L14.4512 12Z" fill="black"/>
<path d="M16.1248 14.7179C16.195 14.7487 16.2792 14.7122 16.3073 14.642C16.3353 14.5719 16.3016 14.4876 16.2315 14.4595C16.1613 14.4287 16.077 14.4652 16.049 14.5354C16.0209 14.6055 16.0546 14.687 16.1248 14.7179Z" fill="black"/>
<path d="M14.5469 11.2756L16.1444 11.8035L16.9418 11.9186L16.195 11.6182L14.5469 11.2756Z" fill="black"/>
<path d="M15.459 14.3332C15.5208 14.3809 15.6078 14.3697 15.6556 14.3079C15.7033 14.2461 15.6921 14.1591 15.6303 14.1114C15.5685 14.0636 15.4815 14.0749 15.4338 14.1366C15.3888 14.1984 15.4001 14.2854 15.459 14.3332Z" fill="black"/>
<path d="M14.8242 10.599L16.2309 11.5227L16.9721 11.84L16.3291 11.3571L14.8242 10.599Z" fill="black"/>
<path d="M14.9174 13.7913C14.9651 13.8531 15.0522 13.8643 15.1139 13.8166C15.1757 13.7688 15.1869 13.6818 15.1392 13.62C15.0915 13.5582 15.0044 13.547 14.9427 13.5947C14.8837 13.6397 14.8697 13.7295 14.9174 13.7913Z" fill="black"/>
<path d="M15.2715 10.0206L16.3917 11.2756L17.0235 11.7754L16.5265 11.1408L15.2715 10.0206Z" fill="black"/>
<path d="M14.5333 13.1259C14.5642 13.1961 14.6456 13.2326 14.7158 13.2017C14.786 13.1708 14.8225 13.0894 14.7916 13.0192C14.7608 12.949 14.6793 12.9125 14.6091 12.9434C14.5389 12.9715 14.5053 13.0529 14.5333 13.1259Z" fill="black"/>
<path d="M15.8496 9.57416L16.6077 11.0791L17.0906 11.722L16.7733 10.9836L15.8496 9.57416Z" fill="black"/>
<path d="M14.3355 12.3847C14.3467 12.4605 14.4169 12.5138 14.4927 12.5054C14.5685 12.4942 14.6219 12.424 14.6134 12.3482C14.6022 12.2724 14.532 12.219 14.4562 12.2274C14.3776 12.2359 14.3242 12.3061 14.3355 12.3847Z" fill="black"/>
<path d="M16.5254 9.2962L16.8679 10.9443L17.1683 11.6911L17.0532 10.8938L16.5254 9.2962Z" fill="black"/>
<path d="M14.3354 11.6154C14.3242 11.6912 14.3803 11.7614 14.4561 11.7726C14.532 11.7838 14.6021 11.7277 14.6134 11.6519C14.6246 11.5761 14.5685 11.5059 14.4926 11.4946C14.414 11.4862 14.3438 11.5396 14.3354 11.6154Z" fill="black"/>
<path d="M17.2498 9.20074L17.1543 10.8797L17.2498 11.6799L17.3452 10.8797L17.2498 9.20074Z" fill="black"/>
<path d="M14.5345 10.8742C14.5036 10.9443 14.5401 11.0286 14.6103 11.0566C14.6805 11.0847 14.7647 11.051 14.7928 10.9808C14.8237 10.9107 14.7872 10.8264 14.717 10.7983C14.644 10.7703 14.5626 10.804 14.5345 10.8742Z" fill="black"/>
<path d="M17.975 9.2962L17.4471 10.8938L17.332 11.6911L17.6325 10.9443L17.975 9.2962Z" fill="black"/>
<path d="M14.9163 10.2115C14.8686 10.2733 14.8798 10.3603 14.9416 10.408C15.0033 10.4558 15.0904 10.4445 15.1381 10.3828C15.1858 10.321 15.1746 10.234 15.1128 10.1862C15.0511 10.1385 14.964 10.1497 14.9163 10.2115Z" fill="black"/>
<path d="M18.6511 9.57416L17.7274 10.9836L17.4102 11.722L17.8931 11.0791L18.6511 9.57416Z" fill="black"/>
<path d="M15.4611 9.6668C15.3993 9.71453 15.3881 9.80157 15.4358 9.86334C15.4835 9.92511 15.5706 9.93634 15.6324 9.88861C15.6941 9.84088 15.7054 9.75384 15.6576 9.69207C15.6099 9.6303 15.52 9.62188 15.4611 9.6668Z" fill="black"/>
<path d="M19.2305 10.0206L17.9755 11.1408L17.4785 11.7754L18.1102 11.2756L19.2305 10.0206Z" fill="black"/>
<path d="M16.1248 9.28495C16.0546 9.31583 16.0209 9.39726 16.049 9.46745C16.0798 9.53764 16.1613 9.57414 16.2315 9.54326C16.3016 9.51237 16.3381 9.43095 16.3073 9.36076C16.2792 9.28776 16.1978 9.25406 16.1248 9.28495Z" fill="black"/>
<path d="M19.6752 10.599L18.1703 11.3571L17.5273 11.84L18.2686 11.5227L19.6752 10.599Z" fill="black"/>
<path d="M16.8657 9.08566C16.7899 9.09689 16.7366 9.16708 16.745 9.24289C16.7562 9.3187 16.8264 9.37204 16.9022 9.36362C16.9781 9.35239 17.0342 9.2822 17.023 9.20639C17.0146 9.13058 16.9444 9.07443 16.8657 9.08566Z" fill="black"/>
<path d="M19.9535 11.2756L18.3054 11.6182L17.5586 11.9186L18.356 11.8035L19.9535 11.2756Z" fill="black"/>
<path d="M17.6352 9.08566C17.5594 9.07443 17.4892 9.13058 17.478 9.20639C17.4668 9.2822 17.5229 9.35239 17.5987 9.36362C17.6745 9.37485 17.7447 9.3187 17.756 9.24289C17.7644 9.16708 17.711 9.09408 17.6352 9.08566Z" fill="black"/>
<path d="M20.0495 12L18.3705 11.9045L17.5703 12L18.3705 12.0955L20.0495 12Z" fill="black"/>
<path d="M18.3772 9.28499C18.307 9.2541 18.2227 9.2906 18.1947 9.36079C18.1638 9.43099 18.2003 9.51522 18.2705 9.54329C18.3407 9.57137 18.4249 9.53768 18.453 9.46749C18.481 9.39449 18.4473 9.31306 18.3772 9.28499Z" fill="black"/>
<path d="M19.9535 12.7244L18.356 12.1965L17.5586 12.0842L18.3054 12.3818L19.9535 12.7244Z" fill="black"/>
<path d="M19.0386 9.66683C18.9768 9.6191 18.8898 9.63033 18.8421 9.6921C18.7943 9.75387 18.8056 9.84091 18.8673 9.88864C18.9291 9.93637 19.0161 9.92514 19.0639 9.86337C19.1116 9.8016 19.1004 9.71456 19.0386 9.66683Z" fill="black"/>
<path d="M19.6752 13.401L18.2686 12.4773L17.5273 12.16L18.1703 12.643L19.6752 13.401Z" fill="black"/>
<path d="M19.5834 10.2115C19.5357 10.1497 19.4486 10.1385 19.3869 10.1862C19.3251 10.234 19.3139 10.321 19.3616 10.3828C19.4093 10.4445 19.4964 10.4558 19.5581 10.408C19.6171 10.3603 19.6311 10.2705 19.5834 10.2115Z" fill="black"/>
<path d="M19.2305 13.9794L18.1102 12.7244L17.4785 12.2274L17.9755 12.8591L19.2305 13.9794Z" fill="black"/>
<path d="M19.9686 10.8741C19.9377 10.8039 19.8563 10.7674 19.7861 10.7983C19.7159 10.8292 19.6794 10.9106 19.7103 10.9808C19.7412 11.051 19.8226 11.0847 19.8928 11.0566C19.963 11.0285 19.9967 10.9471 19.9686 10.8741Z" fill="black"/>
<path d="M18.6511 14.4258L17.8931 12.9209L17.4102 12.278L17.7274 13.0192L18.6511 14.4258Z" fill="black"/>
<path d="M20.1656 11.6154C20.1543 11.5396 20.0841 11.4862 20.0083 11.4946C19.9325 11.5059 19.8792 11.5761 19.8876 11.6519C19.8988 11.7277 19.969 11.781 20.0448 11.7726C20.1234 11.7642 20.1768 11.694 20.1656 11.6154Z" fill="black"/>
<path d="M17.975 14.7038L17.6325 13.0585L17.332 12.3088L17.4471 13.1062L17.975 14.7038Z" fill="black"/>
</svg>
