<svg width="100" height="100" viewBox="0 0 100 100" fill="none" xmlns="http://www.w3.org/2000/svg">
<path d="M50 0C22.3854 0 0 22.3854 0 50C0 77.6146 22.3854 100 50 100C77.6146 100 100 77.6146 100 50C100 22.3854 77.6146 0 50 0Z" fill="#ECEBEC"/>
<path d="M0.25 50C0.25 22.5235 22.5235 0.25 50 0.25C77.4765 0.25 99.75 22.5235 99.75 50C99.75 77.4765 77.4765 99.75 50 99.75C22.5235 99.75 0.25 77.4765 0.25 50Z" stroke="black" stroke-opacity="0.8" stroke-width="0.5"/>
<path d="M83.521 74.1081H16.748V34.304H83.521V74.1081Z" fill="#F4F4F4"/>
<path d="M63.3101 74.1081H36.958V25.8851L50.133 12.106L63.3101 25.8851V74.1081Z" fill="white"/>
<path d="M63.3101 31.0414V25.8851L50.133 12.106L36.958 25.8851V31.0414H63.3101Z" fill="#F4F4F4"/>
<path d="M25.384 49.1978H20.084V40.6812H25.384V49.1978Z" fill="#E0AAFF"/>
<path d="M33.3664 49.1981H28.0664V40.6814H33.3664V49.1981Z" fill="#E0AAFF"/>
<path d="M25.384 67.731H20.084V59.2144H25.384V67.731Z" fill="#E0AAFF"/>
<path d="M33.3664 67.731H28.0664V59.2144H33.3664V67.731Z" fill="#E0AAFF"/>
<path d="M72.1047 49.1978H66.8047V40.6812H72.1047V49.1978Z" fill="#E0AAFF"/>
<path d="M80.0871 49.1978H74.7871V40.6812H80.0871V49.1978Z" fill="#E0AAFF"/>
<path d="M72.1047 67.731H66.8047V59.2144H72.1047V67.731Z" fill="#E0AAFF"/>
<path d="M80.0871 67.731H74.7871V59.2144H80.0871V67.731Z" fill="#E0AAFF"/>
<path d="M52.7834 42.8206H47.4834V34.304H52.7834V42.8206Z" fill="#E0AAFF"/>
<path d="M44.9309 42.8206H39.6309V34.304H44.9309V42.8206Z" fill="#E0AAFF"/>
<path d="M60.635 42.8206H55.335V34.304H60.635V42.8206Z" fill="#E0AAFF"/>
<path d="M49.7845 74.1081H42.2324V61.9727H49.7845V74.1081Z" fill="#E0AAFF"/>
<path d="M58.0355 74.1081H50.4834V61.9727H58.0355V74.1081Z" fill="#E0AAFF"/>
<path d="M52.7834 54.2061H47.4834V45.6895H52.7834V54.2061Z" fill="#E0AAFF"/>
<path d="M44.9309 54.2061H39.6309V45.6895H44.9309V54.2061Z" fill="#E0AAFF"/>
<path d="M60.635 54.2061H55.335V45.6895H60.635V54.2061Z" fill="#E0AAFF"/>
<path d="M55.3734 24.1957C55.3734 27.2728 52.8713 29.7686 49.7859 29.7686C46.6984 29.7686 44.1963 27.2728 44.1963 24.1957C44.1963 21.1166 46.6984 18.6228 49.7859 18.6228C52.8713 18.6228 55.3734 21.1166 55.3734 24.1957Z" fill="#ECEBEC"/>
<path d="M47.1748 25.3582H49.9748C50.154 25.3582 50.3311 25.2853 50.4602 25.1582C50.5873 25.0311 50.6602 24.854 50.6602 24.6749V20.5957C50.6602 20.2186 50.354 19.9124 49.9748 19.9124C49.5936 19.9124 49.2873 20.2186 49.2873 20.5957V23.9894H47.1748C46.7956 23.9894 46.4873 24.2957 46.4873 24.6749C46.4873 25.0519 46.7956 25.3582 47.1748 25.3582Z" fill="#420789"/>
</svg>
