<svg width="40" height="46" viewBox="0 0 40 46" fill="none" xmlns="http://www.w3.org/2000/svg">
<path d="M7.04889 26.9258C7.63269 27.6703 8.21649 28.4148 8.80029 29.1539C8.92883 29.3146 8.94495 29.4699 8.84854 29.652C8.6343 30.059 8.4254 30.4661 8.22187 30.8785C7.68628 31.9658 7.17747 33.0637 6.62046 34.1403C6.18127 34.9919 5.82239 35.8756 5.71527 36.8129C5.5653 38.1251 5.65102 39.4426 6.14377 40.6906C6.96858 42.774 8.31291 44.429 10.2785 45.543C10.6856 45.7734 10.6749 45.768 10.9373 45.3663C12.1531 43.5132 13.3689 41.66 14.5954 39.8122C14.9971 39.207 15.4042 38.5964 15.8005 37.9858L7.04889 26.9258Z" fill="#420789"/>
<path d="M18.452 24.8671C17.8575 23.5656 17.0863 22.3391 16.3525 21.1019C15.5598 19.7682 14.7136 18.4614 13.8941 17.1438C13.0961 15.8584 12.2981 14.573 11.5001 13.2876C10.6913 11.9914 9.88254 10.6953 9.0738 9.39381C8.41502 8.32798 7.77229 7.25679 7.11351 6.19096C6.36368 4.98052 5.60851 3.77544 4.85332 2.57036C4.37664 1.80981 3.90536 1.04927 3.41797 0.267303C3.34298 0.310151 3.31085 0.320864 3.28943 0.347643C2.56102 1.27422 1.96646 2.28113 1.48978 3.35768C0.997035 4.46635 0.59534 5.61252 0.418594 6.81761C0.263272 7.87273 0.0972539 8.9332 0.0329827 9.99903C-0.0420003 11.1613 0.00619523 12.3342 0.225788 13.4857C0.402534 14.3909 0.547139 15.3068 0.75602 16.2066C0.884563 16.7689 1.06136 17.3206 1.28096 17.8562C1.70408 18.8952 2.1325 19.9343 2.63596 20.9358C3.27331 22.1998 4.15704 23.3032 5.04613 24.4065C5.72097 25.242 6.3851 26.0882 7.04924 26.9291L15.7473 38.0802C16.54 36.859 17.3487 35.5308 17.9646 34.2025C18.5056 33.0402 18.9341 31.8459 19.1751 30.5712C19.55 28.5734 19.2769 26.6667 18.452 24.8671Z" fill="#A884D2"/>
<path d="M39.9522 9.08366C39.9147 8.32847 39.8129 7.66969 39.679 6.91451C39.6576 6.80203 39.6308 6.68956 39.6094 6.57173C39.5451 6.19146 39.422 5.70942 39.3149 5.34522C38.9132 4.01159 38.399 2.72081 37.6652 1.52644C37.3545 1.02298 37.0011 0.540949 36.6369 0C35.8978 1.1783 35.2068 2.2602 34.5266 3.35281C33.6965 4.68644 32.8824 6.03078 32.0575 7.36976C31.3988 8.43559 30.7347 9.50142 30.0759 10.5673C29.2832 11.8473 28.4905 13.1274 27.6925 14.4021C26.9533 15.5858 26.1821 16.7534 25.4697 17.9531L31.0935 29.4041C31.072 29.2862 31.0935 29.1684 31.2006 29.0399C31.6398 28.5096 32.0468 27.958 32.47 27.417C33.5786 26.0084 34.6927 24.5998 35.8013 23.1912C36.6904 22.0557 37.4349 20.8239 38.008 19.5063C38.4204 18.5583 38.8275 17.5942 39.106 16.598C39.4113 15.5108 39.5612 14.3807 39.7808 13.2666C40.054 11.8848 40.0218 10.4816 39.9522 9.08366Z" fill="#420789"/>
<g opacity="0.55" filter="url(#filter0_d_376_423)">
<path d="M31.0268 29.321L31.9461 28.0541L25.4727 17.9611L31.0268 29.321Z" fill="#121212" fill-opacity="0.8" shape-rendering="crispEdges"/>
</g>
<path d="M32.8553 33.1653C32.6464 32.7315 32.4858 32.2762 32.2769 31.8424C31.9127 31.0818 31.5324 30.3374 31.1575 29.5822C31.1307 29.5233 31.1093 29.4697 31.0985 29.4162L25.4748 17.9652C26.1872 16.7654 26.9584 15.6032 27.6975 14.4142C26.8888 15.7103 26.0372 16.9797 25.2713 18.3026C24.3769 19.8505 23.5307 21.4251 22.7005 23.0051C21.8328 24.6601 21.174 26.3954 20.8045 28.2432C20.3867 30.3481 20.7134 32.3244 21.7525 34.1454C22.6576 35.7254 23.7074 37.2197 24.7036 38.7462C25.582 40.0905 26.4764 41.4188 27.3601 42.7524C28.0082 43.7326 28.6616 44.718 29.3204 45.7142C29.5989 45.5482 29.8613 45.409 30.1024 45.2429C30.3755 45.0608 30.6487 44.868 30.9004 44.6538C32.9678 42.8917 34.2371 40.7332 34.3121 37.9481C34.3442 36.6681 33.9854 35.5005 33.4926 34.3329C33.2891 33.9419 33.0481 33.5616 32.8553 33.1653Z" fill="#A884D2"/>
<path opacity="0.3" d="M15.7071 38.0081L8.94251 29.4225L8.31055 30.7187L15.7071 38.0081Z" fill="#121212" fill-opacity="0.8"/>
<defs>
<filter id="filter0_d_376_423" x="20.015" y="17.9611" width="17.3889" height="22.2752" filterUnits="userSpaceOnUse" color-interpolation-filters="sRGB">
<feFlood flood-opacity="0" result="BackgroundImageFix"/>
<feColorMatrix in="SourceAlpha" type="matrix" values="0 0 0 0 0 0 0 0 0 0 0 0 0 0 0 0 0 0 127 0" result="hardAlpha"/>
<feOffset dy="5.45761"/>
<feGaussianBlur stdDeviation="2.72881"/>
<feComposite in2="hardAlpha" operator="out"/>
<feColorMatrix type="matrix" values="0 0 0 0 0 0 0 0 0 0 0 0 0 0 0 0 0 0 0.25 0"/>
<feBlend mode="normal" in2="BackgroundImageFix" result="effect1_dropShadow_376_423"/>
<feBlend mode="normal" in="SourceGraphic" in2="effect1_dropShadow_376_423" result="shape"/>
</filter>
</defs>
</svg>
