<svg width="16" height="16" viewBox="0 0 16 16" fill="none" xmlns="http://www.w3.org/2000/svg">
<path d="M8 0C9.58225 0 11.129 0.469191 12.4446 1.34824C13.7602 2.22729 14.7855 3.47672 15.391 4.93853C15.9965 6.40034 16.155 8.00887 15.8463 9.56072C15.5376 11.1126 14.7757 12.538 13.6569 13.6569C12.538 14.7757 11.1126 15.5376 9.56072 15.8463C8.00887 16.155 6.40034 15.9965 4.93853 15.391C3.47672 14.7855 2.22729 13.7602 1.34824 12.4446C0.469192 11.129 0 9.58225 0 8C0 5.87827 0.842854 3.84344 2.34314 2.34315C3.84344 0.842854 5.87827 0 8 0ZM2.61689 13.3831C4.04458 14.8108 5.98094 15.6129 8 15.6129C10.0191 15.6129 11.9554 14.8108 13.3831 13.3831C14.8108 11.9554 15.6129 10.0191 15.6129 8C15.6129 5.98094 14.8108 4.04458 13.3831 2.61689L13.28 2.51733C13.3036 2.60016 13.3389 2.67919 13.3849 2.752C13.4969 2.92978 13.6853 2.98844 13.8044 3.14667C13.9158 3.30538 13.9971 3.48312 14.0444 3.67111C14.0889 3.84889 14.0622 4.06044 14.1244 4.23467C14.2027 4.45689 14.3449 4.59022 14.3182 4.84622C14.0089 4.93689 14.1404 4.38755 13.8827 4.35911C13.7991 4.56533 13.8542 4.94578 13.8827 5.16978C13.9147 5.47733 13.9751 5.55378 13.792 5.81867C13.6462 6.02667 13.5982 6.17422 13.3156 6.20089C13.0329 6.22755 12.9511 6.34666 12.8444 6.59555C12.6453 6.63822 12.5244 6.672 12.4978 6.89244C12.3875 6.97528 12.2704 7.04844 12.1476 7.11111C12.016 7.14667 11.792 6.95822 11.6711 7.11111C11.4631 7.35289 11.9342 7.984 12.0267 8.20266C12.1511 8.52089 12.1689 8.99022 11.8667 9.21955C11.712 9.33689 11.5467 9.39733 11.4951 9.60711C11.4436 9.81689 11.4844 9.96266 11.3973 10.1564C11.2604 10.448 10.9493 10.544 10.7271 10.7662C10.4338 11.0578 10.4551 11.4382 10.4551 11.8507C10.4551 12.2631 10.2898 12.6133 10.2329 13.0098C10.176 13.4062 10.0551 13.7973 9.968 14.1938C9.90222 14.4907 9.64622 14.9404 9.27466 14.88C9.24978 14.7396 9.39555 14.6276 9.41333 14.4889C9.43111 14.3502 9.39378 14.2311 9.41333 14.0942C9.44866 13.9821 9.45513 13.8629 9.43214 13.7476C9.40914 13.6323 9.35742 13.5247 9.28178 13.4347C9.21955 13.3529 9.13244 13.2836 9.06666 13.2018C8.94222 13.04 9.03822 13.088 9.04355 12.912C9.04355 12.6933 8.98311 12.8 8.85155 12.7342C8.77677 12.6781 8.71033 12.6117 8.65422 12.5369C8.51427 12.4142 8.38629 12.2785 8.272 12.1316C8.17066 11.9698 8.18311 11.7476 8.08 11.5822C7.97689 11.4169 7.79555 11.392 7.63022 11.2676C7.41689 11.1076 7.504 10.9387 7.46489 10.7182C7.39717 10.3312 7.23878 9.96564 7.00267 9.65155C6.71111 9.28178 6.58489 8.96889 6.94044 8.61511C7.11822 8.43733 7.20711 8.48711 7.44 8.42489C7.61778 8.37866 7.77778 8.24711 7.95733 8.22755C8.06578 8.21333 8.13511 8.25244 8.22933 8.22755C8.32355 8.20266 8.30933 8.14578 8.40711 8.14755C8.55111 8.14755 8.76266 8.45155 8.87644 8.25778C8.944 8.15111 8.73778 7.85422 8.74666 7.71022C8.75911 7.53244 8.82489 7.24444 8.99733 7.14666C9.06311 7.11111 9.20889 7.10578 9.28889 7.07378C9.38337 7.03598 9.47388 6.98893 9.55911 6.93333C9.66933 6.86222 9.88267 6.73778 9.93244 6.61155C10.0676 6.61155 10.16 6.53155 10.288 6.53333C10.4005 6.55668 10.5146 6.57153 10.6293 6.57778C10.7449 6.56355 10.8729 6.47111 10.9991 6.48889C11.0998 6.52956 11.1943 6.584 11.28 6.65067C11.4699 6.75966 11.6766 6.83655 11.8916 6.87822C12.2222 6.94044 12.2809 6.81422 12.2613 6.50844L12.32 6.4C12.1973 6.05867 12.4178 6.03378 12.6613 5.952C12.6951 5.70844 12.3964 5.536 12.5209 5.26933C12.7733 5.25689 13.0542 5.968 13.2622 5.66044C13.4027 5.456 13.1893 4.88889 13.0649 4.71644C12.8496 4.47795 12.5738 4.30224 12.2667 4.208C12.1908 4.19402 12.1125 4.20586 12.0442 4.24163C11.9759 4.2774 11.9215 4.33504 11.8898 4.40533C11.8204 4.56533 11.9111 4.71467 11.8898 4.896C11.6782 4.84622 11.7333 4.576 11.7422 4.43022C11.7582 4.18844 11.6302 4.20622 11.5076 4.032C11.3849 3.85778 11.376 3.69067 11.2356 3.536C11.1271 3.41689 10.9973 3.29067 10.88 3.18044C10.7627 3.07022 10.5884 3.06667 10.448 2.97422C10.2347 2.832 10.5173 2.56889 10.2009 2.59022C10.0889 2.59022 10.1458 2.66667 9.99644 2.63289C9.91293 2.60414 9.83104 2.57091 9.75111 2.53333C9.45066 2.41067 9.664 2.37867 9.80266 2.22044C9.98044 2.01778 9.72978 2.05333 9.54844 2.02311C9.41511 2 9.44355 1.95733 9.328 2.03556C9.21244 2.11378 9.28533 2.19555 9.136 2.19022C8.85155 2.18133 9.04889 1.89511 9.11111 1.80089C9.21955 1.63911 9.248 1.52533 9.47733 1.52C9.44951 1.44242 9.44951 1.35758 9.47733 1.28C9.66933 1.30667 9.70311 1.16622 9.84889 1.11111C10.096 1.01689 10.0551 1.21778 10.1564 1.35644C10.2578 1.49511 10.4587 1.47378 10.5333 1.64622C10.608 1.81867 10.5333 1.96267 10.8267 1.91467C10.7985 1.79832 10.7924 1.67769 10.8089 1.55911C10.8899 1.54752 10.9696 1.52847 11.0471 1.50222C11.0471 1.21244 10.7271 1.18756 10.5138 1.16089C10.3004 1.13422 10.1902 0.881778 9.98044 0.840889C9.77066 0.8 9.62489 1.13067 9.38133 0.938666C9.23911 0.830222 9.30489 0.760889 9.35644 0.661333C9.37066 0.634667 9.44355 0.570667 9.46133 0.544C9.47911 0.517333 9.46133 0.544 9.46133 0.544C9.26755 0.504889 9.07022 0.476444 8.87289 0.453333C8.82792 0.557485 8.77378 0.657434 8.71111 0.752C8.67911 0.807111 8.61689 0.842667 8.592 0.903111C8.56711 0.963556 8.63111 1.05778 8.54578 1.104C8.41067 1.17511 8.01244 0.709333 7.92711 0.634666C7.84178 0.56 7.73511 0.485333 7.76355 0.392889C7.14414 0.410091 6.52917 0.503232 5.93244 0.670222C5.88444 0.728889 5.83644 0.789333 5.78844 0.848C5.68533 0.992 5.61067 1.12178 5.43289 1.18578C5.32622 1.22311 4.97955 1.216 5.12355 1.46489C5.26755 1.71378 5.40267 1.39378 5.47911 1.32089C5.55555 1.248 5.84711 1.11111 5.83467 1.34044C5.82222 1.68 5.05422 1.62489 5.21955 2C5.12711 2.05333 4.94578 2.144 4.976 2.27733C5.01155 2.44267 5.22844 2.33778 5.22311 2.54933C5.21877 2.62371 5.19748 2.69611 5.16088 2.76101C5.12428 2.8259 5.07333 2.88158 5.01193 2.92377C4.95052 2.96597 4.88028 2.99357 4.80658 3.00447C4.73288 3.01537 4.65766 3.00928 4.58667 2.98667C4.26311 2.87111 4.50666 2.42311 4.13689 2.37689C4.07181 2.37015 4.00606 2.37816 3.94451 2.40032C3.88295 2.42248 3.82718 2.45822 3.78133 2.50489C3.67466 2.58844 3.60355 2.78044 3.45778 2.76622C3.44355 2.67556 3.51289 2.60978 3.52355 2.52622C3.36672 2.57858 3.22635 2.67114 3.11644 2.79467C3.01689 2.94578 3.02755 3.16089 2.78578 2.97244C2.82311 2.944 2.84089 2.87644 2.86044 2.85333C2.72352 2.84481 2.58724 2.87817 2.46974 2.94899C2.35224 3.01981 2.25908 3.12472 2.20267 3.24978C1.90755 3.84889 2.63467 3.37244 2.67022 3.68533C2.848 3.62844 2.92978 3.48444 3.08444 3.39733C3.15911 3.35644 3.29422 3.37955 3.35111 3.33689C3.408 3.29422 3.40978 3.17689 3.47911 3.12C3.74755 2.89955 4.368 3.25689 4.608 3.39911C4.67555 3.43644 4.74667 3.44178 4.78578 3.51289C4.864 3.63733 4.75378 3.66933 4.78578 3.78667C4.81955 3.952 5.03644 4.02844 5.10222 4.16C5.25867 4.48 4.94044 4.93511 4.98311 5.29067C5.00622 5.48622 5.21778 5.69955 5.13778 5.86311C5.10222 5.93422 4.97956 5.99467 4.93333 6.07822C4.89475 6.16705 4.8502 6.25317 4.8 6.336C4.59709 6.60528 4.38051 6.86399 4.15111 7.11111C4.09368 7.17471 4.01977 7.22117 3.93755 7.24533C3.85534 7.26949 3.76804 7.27042 3.68533 7.248C3.50762 7.21619 3.33367 7.16614 3.16622 7.09867C2.98844 7.00978 2.95644 6.88355 2.76089 6.96889C2.60444 7.03644 2.46756 7.23555 2.28622 7.07022C2.13689 7.21778 2.30222 7.472 2.336 7.63555C2.34929 7.73759 2.34028 7.8413 2.30959 7.93952C2.27889 8.03774 2.22725 8.12813 2.15822 8.20444C2.00533 8.41778 1.968 8.45511 2 8.73778C2.02489 8.96 2.08178 9.16266 2.128 9.38311C2.17422 9.60355 2.30578 9.75289 2.30578 9.97511C2.30578 10.1973 2.21155 10.3467 2.23822 10.5671C2.25291 10.7745 2.28202 10.9806 2.32533 11.184C2.37689 11.3796 2.51378 11.552 2.57244 11.7511C2.60447 11.8502 2.61263 11.9555 2.59626 12.0584C2.57989 12.1613 2.53944 12.2588 2.47822 12.3431C2.34133 12.5049 2.20444 12.4124 2.04089 12.2898C1.72089 12.0462 1.57511 11.6338 1.36355 11.3067C1.14139 10.9963 0.947431 10.6667 0.784 10.3218C0.752768 10.2469 0.71715 10.1738 0.677332 10.1031C1.03359 11.3439 1.70126 12.473 2.61689 13.3831Z" fill="#6B6B6B"/>
</svg>
