<svg width="79" height="20" viewBox="0 0 79 20" fill="none" xmlns="http://www.w3.org/2000/svg">
<path d="M29.6506 5.81818L32.6733 14.3892H32.7926L35.8153 5.81818H37.108L33.3693 16H32.0966L28.358 5.81818H29.6506ZM41.0256 16.1591C40.2898 16.1591 39.6551 15.9967 39.1214 15.6719C38.5911 15.3438 38.1818 14.8864 37.8935 14.2997C37.6084 13.7098 37.4659 13.0237 37.4659 12.2415C37.4659 11.4593 37.6084 10.7699 37.8935 10.1733C38.1818 9.57339 38.5829 9.10606 39.0966 8.77131C39.6136 8.43324 40.2169 8.2642 40.9062 8.2642C41.304 8.2642 41.6967 8.33049 42.0845 8.46307C42.4723 8.59564 42.8253 8.81108 43.1435 9.10938C43.4616 9.40436 43.7152 9.79545 43.9041 10.2827C44.093 10.7699 44.1875 11.3698 44.1875 12.0824V12.5795H38.3011V11.5653H42.9943C42.9943 11.1345 42.9081 10.75 42.7358 10.4119C42.5668 10.0739 42.3248 9.80705 42.0099 9.61151C41.6984 9.41596 41.3305 9.31818 40.9062 9.31818C40.4389 9.31818 40.0346 9.43419 39.6932 9.66619C39.3551 9.89489 39.0949 10.1932 38.9126 10.5611C38.7304 10.929 38.6392 11.3234 38.6392 11.7443V12.4205C38.6392 12.9972 38.7386 13.486 38.9375 13.8871C39.1397 14.2848 39.4197 14.5881 39.7777 14.7969C40.1357 15.0024 40.5516 15.1051 41.0256 15.1051C41.3338 15.1051 41.6122 15.062 41.8608 14.9759C42.1127 14.8864 42.3298 14.7538 42.5121 14.5781C42.6944 14.3991 42.8352 14.1771 42.9347 13.9119L44.0682 14.2301C43.9489 14.6146 43.7483 14.9527 43.4666 15.2443C43.1849 15.5327 42.8369 15.758 42.4226 15.9205C42.0083 16.0795 41.5426 16.1591 41.0256 16.1591ZM45.9723 16V8.36364H47.1058V9.51705H47.1854C47.3246 9.1392 47.5765 8.83262 47.9411 8.5973C48.3056 8.36198 48.7166 8.24432 49.174 8.24432C49.2602 8.24432 49.3679 8.24597 49.4972 8.24929C49.6264 8.2526 49.7242 8.25758 49.7905 8.2642V9.45739C49.7507 9.44744 49.6596 9.43253 49.517 9.41264C49.3778 9.38944 49.2304 9.37784 49.0746 9.37784C48.7034 9.37784 48.3719 9.45573 48.0803 9.61151C47.7919 9.76397 47.5632 9.97609 47.3942 10.2479C47.2285 10.5163 47.1456 10.8229 47.1456 11.1676V16H45.9723ZM51.1813 16V8.36364H52.3546V16H51.1813ZM51.7779 7.09091C51.5492 7.09091 51.352 7.01302 51.1863 6.85724C51.0239 6.70147 50.9426 6.5142 50.9426 6.29545C50.9426 6.0767 51.0239 5.88944 51.1863 5.73366C51.352 5.57789 51.5492 5.5 51.7779 5.5C52.0066 5.5 52.2021 5.57789 52.3645 5.73366C52.5302 5.88944 52.6131 6.0767 52.6131 6.29545C52.6131 6.5142 52.5302 6.70147 52.3645 6.85724C52.2021 7.01302 52.0066 7.09091 51.7779 7.09091ZM57.9041 8.36364V9.35795H53.7876V8.36364H57.9041ZM55.0206 16V7.30966C55.0206 6.87216 55.1233 6.50758 55.3288 6.21591C55.5343 5.92424 55.8011 5.70549 56.1293 5.55966C56.4574 5.41383 56.8037 5.34091 57.1683 5.34091C57.4567 5.34091 57.692 5.36411 57.8743 5.41051C58.0566 5.45691 58.1925 5.5 58.282 5.53977L57.9439 6.55398C57.8842 6.53409 57.8014 6.50923 57.6953 6.4794C57.5926 6.44957 57.4567 6.43466 57.2876 6.43466C56.8999 6.43466 56.6198 6.53243 56.4474 6.72798C56.2784 6.92353 56.1939 7.21023 56.1939 7.58807V16H55.0206ZM59.5485 16V8.36364H60.7218V16H59.5485ZM60.1451 7.09091C59.9164 7.09091 59.7192 7.01302 59.5534 6.85724C59.391 6.70147 59.3098 6.5142 59.3098 6.29545C59.3098 6.0767 59.391 5.88944 59.5534 5.73366C59.7192 5.57789 59.9164 5.5 60.1451 5.5C60.3738 5.5 60.5693 5.57789 60.7317 5.73366C60.8974 5.88944 60.9803 6.0767 60.9803 6.29545C60.9803 6.5142 60.8974 6.70147 60.7317 6.85724C60.5693 7.01302 60.3738 7.09091 60.1451 7.09091ZM66.0724 16.1591C65.3366 16.1591 64.7019 15.9967 64.1683 15.6719C63.638 15.3438 63.2287 14.8864 62.9403 14.2997C62.6553 13.7098 62.5128 13.0237 62.5128 12.2415C62.5128 11.4593 62.6553 10.7699 62.9403 10.1733C63.2287 9.57339 63.6297 9.10606 64.1435 8.77131C64.6605 8.43324 65.2637 8.2642 65.9531 8.2642C66.3509 8.2642 66.7436 8.33049 67.1314 8.46307C67.5192 8.59564 67.8722 8.81108 68.1903 9.10938C68.5085 9.40436 68.7621 9.79545 68.951 10.2827C69.1399 10.7699 69.2344 11.3698 69.2344 12.0824V12.5795H63.348V11.5653H68.0412C68.0412 11.1345 67.955 10.75 67.7827 10.4119C67.6136 10.0739 67.3717 9.80705 67.0568 9.61151C66.7453 9.41596 66.3774 9.31818 65.9531 9.31818C65.4858 9.31818 65.0814 9.43419 64.7401 9.66619C64.402 9.89489 64.1418 10.1932 63.9595 10.5611C63.7772 10.929 63.6861 11.3234 63.6861 11.7443V12.4205C63.6861 12.9972 63.7855 13.486 63.9844 13.8871C64.1866 14.2848 64.4666 14.5881 64.8246 14.7969C65.1825 15.0024 65.5985 15.1051 66.0724 15.1051C66.3807 15.1051 66.6591 15.062 66.9077 14.9759C67.1596 14.8864 67.3767 14.7538 67.5589 14.5781C67.7412 14.3991 67.8821 14.1771 67.9815 13.9119L69.1151 14.2301C68.9957 14.6146 68.7952 14.9527 68.5135 15.2443C68.2318 15.5327 67.8838 15.758 67.4695 15.9205C67.0552 16.0795 66.5895 16.1591 66.0724 16.1591ZM73.9027 16.1591C73.2663 16.1591 72.7045 15.9983 72.2173 15.6768C71.7301 15.352 71.349 14.8946 71.0739 14.3047C70.7988 13.7114 70.6612 13.0104 70.6612 12.2017C70.6612 11.3996 70.7988 10.7036 71.0739 10.1136C71.349 9.52367 71.7318 9.06794 72.2223 8.74645C72.7128 8.42495 73.2796 8.2642 73.9226 8.2642C74.4197 8.2642 74.8125 8.34706 75.1009 8.51278C75.3925 8.67519 75.6146 8.8608 75.767 9.0696C75.9228 9.27509 76.0438 9.44413 76.13 9.5767H76.2294V5.81818H77.4027V16H76.2692V14.8267H76.13C76.0438 14.9659 75.9212 15.1416 75.7621 15.3537C75.603 15.5625 75.3759 15.7498 75.081 15.9155C74.786 16.0779 74.3932 16.1591 73.9027 16.1591ZM74.0618 15.1051C74.5324 15.1051 74.9302 14.9825 75.255 14.7372C75.5798 14.4886 75.8267 14.1456 75.9957 13.7081C76.1648 13.2673 76.2493 12.7585 76.2493 12.1818C76.2493 11.6117 76.1664 11.1129 76.0007 10.6854C75.835 10.2545 75.5897 9.91974 75.2649 9.68111C74.9401 9.43916 74.5391 9.31818 74.0618 9.31818C73.5646 9.31818 73.1503 9.44579 72.8189 9.70099C72.4908 9.95289 72.2438 10.2959 72.0781 10.7301C71.9157 11.161 71.8345 11.6449 71.8345 12.1818C71.8345 12.7254 71.9174 13.2192 72.0831 13.6634C72.2521 14.1042 72.5007 14.4555 72.8288 14.7173C73.1603 14.9759 73.5713 15.1051 74.0618 15.1051Z" fill="#14AB50"/>
<g clip-path="url(#clip0_1207_1192)">
<path d="M10 0.833374L2.5 4.16671V9.16671C2.5 13.7917 5.7 18.1167 10 19.1667C14.3 18.1167 17.5 13.7917 17.5 9.16671V4.16671L10 0.833374ZM8.33333 14.1667L5 10.8334L6.175 9.65837L8.33333 11.8084L13.825 6.31671L15 7.50004L8.33333 14.1667Z" fill="#14AB50"/>
</g>
<defs>
<clipPath id="clip0_1207_1192">
<rect width="20" height="20" fill="white"/>
</clipPath>
</defs>
</svg>
