<svg width="221" height="42" viewBox="0 0 221 42" fill="none" xmlns="http://www.w3.org/2000/svg">
<path d="M57.9787 17H56.348L60.0121 6.81818H61.7869L65.451 17H63.8203L60.9418 8.66761H60.8622L57.9787 17ZM58.2521 13.0128H63.5419V14.3054H58.2521V13.0128ZM72.4696 11.228L71.1223 11.4666C71.066 11.2943 70.9765 11.1302 70.8539 10.9744C70.7346 10.8187 70.5721 10.6911 70.3667 10.5916C70.1612 10.4922 69.9043 10.4425 69.5961 10.4425C69.1751 10.4425 68.8238 10.5369 68.5421 10.7259C68.2604 10.9115 68.1195 11.1518 68.1195 11.4467C68.1195 11.7019 68.214 11.9074 68.4029 12.0632C68.5918 12.219 68.8967 12.3466 69.3176 12.446L70.5307 12.7244C71.2334 12.8868 71.757 13.1371 72.1017 13.4751C72.4464 13.8132 72.6188 14.2524 72.6188 14.7926C72.6188 15.25 72.4862 15.6577 72.2211 16.0156C71.9592 16.3703 71.593 16.6487 71.1223 16.8509C70.655 17.053 70.1131 17.1541 69.4966 17.1541C68.6415 17.1541 67.9438 16.9718 67.4036 16.6072C66.8633 16.2393 66.5319 15.7173 66.4093 15.0412L67.8461 14.8224C67.9355 15.197 68.1195 15.4804 68.3979 15.6726C68.6763 15.8615 69.0392 15.956 69.4867 15.956C69.9739 15.956 70.3633 15.8549 70.655 15.6527C70.9467 15.4472 71.0925 15.197 71.0925 14.902C71.0925 14.6634 71.003 14.4628 70.824 14.3004C70.6484 14.138 70.3783 14.0154 70.0137 13.9325L68.7211 13.6491C68.0085 13.4867 67.4815 13.2282 67.1401 12.8736C66.802 12.5189 66.633 12.0698 66.633 11.5263C66.633 11.0755 66.7589 10.6811 67.0108 10.343C67.2627 10.005 67.6107 9.74148 68.0549 9.55256C68.499 9.36032 69.0078 9.2642 69.5811 9.2642C70.4064 9.2642 71.056 9.44318 71.53 9.80114C72.004 10.1558 72.3172 10.6314 72.4696 11.228ZM79.9755 11.228L78.6282 11.4666C78.5719 11.2943 78.4824 11.1302 78.3597 10.9744C78.2404 10.8187 78.078 10.6911 77.8725 10.5916C77.667 10.4922 77.4102 10.4425 77.1019 10.4425C76.681 10.4425 76.3297 10.5369 76.0479 10.7259C75.7662 10.9115 75.6254 11.1518 75.6254 11.4467C75.6254 11.7019 75.7198 11.9074 75.9087 12.0632C76.0977 12.219 76.4026 12.3466 76.8235 12.446L78.0366 12.7244C78.7392 12.8868 79.2629 13.1371 79.6076 13.4751C79.9523 13.8132 80.1246 14.2524 80.1246 14.7926C80.1246 15.25 79.9921 15.6577 79.7269 16.0156C79.4651 16.3703 79.0988 16.6487 78.6282 16.8509C78.1609 17.053 77.619 17.1541 77.0025 17.1541C76.1474 17.1541 75.4497 16.9718 74.9094 16.6072C74.3692 16.2393 74.0378 15.7173 73.9151 15.0412L75.3519 14.8224C75.4414 15.197 75.6254 15.4804 75.9038 15.6726C76.1822 15.8615 76.5451 15.956 76.9925 15.956C77.4798 15.956 77.8692 15.8549 78.1609 15.6527C78.4525 15.4472 78.5984 15.197 78.5984 14.902C78.5984 14.6634 78.5089 14.4628 78.3299 14.3004C78.1542 14.138 77.8841 14.0154 77.5195 13.9325L76.2269 13.6491C75.5143 13.4867 74.9873 13.2282 74.646 12.8736C74.3079 12.5189 74.1388 12.0698 74.1388 11.5263C74.1388 11.0755 74.2648 10.6811 74.5167 10.343C74.7686 10.005 75.1166 9.74148 75.5607 9.55256C76.0049 9.36032 76.5136 9.2642 77.087 9.2642C77.9123 9.2642 78.5619 9.44318 79.0359 9.80114C79.5098 10.1558 79.823 10.6314 79.9755 11.228ZM81.7591 17V9.36364H83.2456V17H81.7591ZM82.5098 8.18537C82.2512 8.18537 82.0292 8.09919 81.8436 7.92685C81.6613 7.75118 81.5701 7.54238 81.5701 7.30043C81.5701 7.05516 81.6613 6.84635 81.8436 6.67401C82.0292 6.49834 82.2512 6.41051 82.5098 6.41051C82.7683 6.41051 82.9887 6.49834 83.171 6.67401C83.3566 6.84635 83.4494 7.05516 83.4494 7.30043C83.4494 7.54238 83.3566 7.75118 83.171 7.92685C82.9887 8.09919 82.7683 8.18537 82.5098 8.18537ZM88.4471 20.0227C87.8406 20.0227 87.3185 19.9432 86.881 19.7841C86.4469 19.625 86.0922 19.4145 85.8171 19.1527C85.542 18.8909 85.3365 18.6042 85.2006 18.2926L86.4783 17.7656C86.5678 17.9115 86.6871 18.0656 86.8363 18.228C86.9888 18.3937 87.1942 18.5346 87.4528 18.6506C87.7146 18.7666 88.051 18.8246 88.462 18.8246C89.0254 18.8246 89.4911 18.687 89.859 18.4119C90.2269 18.1402 90.4109 17.706 90.4109 17.1094V15.608H90.3164C90.2269 15.7704 90.0977 15.951 89.9286 16.1499C89.7629 16.3487 89.5342 16.5211 89.2425 16.6669C88.9509 16.8127 88.5714 16.8857 88.104 16.8857C87.5008 16.8857 86.9573 16.7448 86.4734 16.4631C85.9928 16.178 85.6116 15.7588 85.3299 15.2053C85.0515 14.6484 84.9123 13.964 84.9123 13.152C84.9123 12.34 85.0498 11.6439 85.3249 11.0639C85.6033 10.4839 85.9845 10.0398 86.4684 9.73153C86.9523 9.41998 87.5008 9.2642 88.114 9.2642C88.5879 9.2642 88.9708 9.34375 89.2624 9.50284C89.5541 9.65862 89.7811 9.84091 89.9435 10.0497C90.1093 10.2585 90.2369 10.4425 90.3263 10.6016H90.4357V9.36364H91.8924V17.169C91.8924 17.8253 91.7399 18.3639 91.435 18.7848C91.1301 19.2057 90.7174 19.5173 90.1971 19.7195C89.68 19.9216 89.0967 20.0227 88.4471 20.0227ZM88.4322 15.6527C88.8597 15.6527 89.221 15.5533 89.516 15.3544C89.8143 15.1522 90.0397 14.8639 90.1921 14.4893C90.3479 14.1115 90.4258 13.6591 90.4258 13.1321C90.4258 12.6184 90.3496 12.166 90.1971 11.7749C90.0446 11.3838 89.8209 11.0788 89.5259 10.8601C89.2309 10.638 88.8664 10.527 88.4322 10.527C87.9847 10.527 87.6119 10.643 87.3136 10.875C87.0153 11.1037 86.7899 11.4152 86.6374 11.8097C86.4883 12.2041 86.4137 12.6449 86.4137 13.1321C86.4137 13.6326 86.4899 14.0717 86.6424 14.4496C86.7949 14.8274 87.0202 15.1224 87.3185 15.3345C87.6201 15.5466 87.9914 15.6527 88.4322 15.6527ZM95.3725 12.4659V17H93.886V9.36364H95.3129V10.6065H95.4073C95.583 10.2022 95.8581 9.87737 96.2326 9.6321C96.6104 9.38684 97.0861 9.2642 97.6594 9.2642C98.1798 9.2642 98.6355 9.37358 99.0266 9.59233C99.4177 9.80777 99.721 10.1293 99.9364 10.5568C100.152 10.9844 100.26 11.513 100.26 12.1428V17H98.7731V12.3217C98.7731 11.7682 98.6289 11.3357 98.3406 11.0241C98.0522 10.7093 97.6561 10.5518 97.1523 10.5518C96.8076 10.5518 96.5011 10.6264 96.2326 10.7756C95.9674 10.9247 95.757 11.1435 95.6012 11.4318C95.4487 11.7169 95.3725 12.0616 95.3725 12.4659ZM106.938 17H105.307L108.971 6.81818H110.746L114.41 17H112.779L109.901 8.66761H109.821L106.938 17ZM107.211 13.0128H112.501V14.3054H107.211V13.0128ZM118.497 17.1491C117.88 17.1491 117.33 16.9917 116.846 16.6768C116.365 16.3587 115.988 15.9062 115.713 15.3196C115.441 14.7296 115.305 14.022 115.305 13.1967C115.305 12.3714 115.442 11.6655 115.718 11.0788C115.996 10.4922 116.377 10.0431 116.861 9.73153C117.345 9.41998 117.893 9.2642 118.507 9.2642C118.981 9.2642 119.362 9.34375 119.65 9.50284C119.942 9.65862 120.167 9.84091 120.326 10.0497C120.489 10.2585 120.615 10.4425 120.704 10.6016H120.794V6.81818H122.28V17H120.828V15.8118H120.704C120.615 15.9742 120.485 16.1598 120.316 16.3686C120.151 16.5774 119.922 16.7597 119.63 16.9155C119.338 17.0713 118.961 17.1491 118.497 17.1491ZM118.825 15.8814C119.252 15.8814 119.614 15.7687 119.909 15.5433C120.207 15.3146 120.432 14.9981 120.585 14.5938C120.74 14.1894 120.818 13.7187 120.818 13.1818C120.818 12.6515 120.742 12.1875 120.59 11.7898C120.437 11.392 120.213 11.0821 119.919 10.8601C119.624 10.638 119.259 10.527 118.825 10.527C118.377 10.527 118.004 10.643 117.706 10.875C117.408 11.107 117.182 11.4235 117.03 11.8246C116.881 12.2256 116.806 12.678 116.806 13.1818C116.806 13.6922 116.883 14.1513 117.035 14.5589C117.187 14.9666 117.413 15.2898 117.711 15.5284C118.013 15.7637 118.384 15.8814 118.825 15.8814ZM124.402 17V9.36364H125.828V10.6065H125.923C126.082 10.1856 126.342 9.85748 126.703 9.62216C127.065 9.38352 127.497 9.2642 128.001 9.2642C128.511 9.2642 128.939 9.38352 129.284 9.62216C129.632 9.8608 129.889 10.1889 130.054 10.6065H130.134C130.316 10.1989 130.606 9.87405 131.004 9.6321C131.402 9.38684 131.876 9.2642 132.426 9.2642C133.118 9.2642 133.684 9.4813 134.121 9.91548C134.562 10.3497 134.782 11.0043 134.782 11.8793V17H133.296V12.0185C133.296 11.5014 133.155 11.1269 132.873 10.8949C132.592 10.6629 132.255 10.5469 131.864 10.5469C131.38 10.5469 131.004 10.696 130.735 10.9943C130.467 11.2893 130.333 11.6688 130.333 12.1328V17H128.851V11.924C128.851 11.5097 128.722 11.1766 128.463 10.9247C128.205 10.6728 127.868 10.5469 127.454 10.5469C127.172 10.5469 126.912 10.6214 126.674 10.7706C126.438 10.9164 126.248 11.1203 126.102 11.3821C125.959 11.6439 125.888 11.9472 125.888 12.2919V17H124.402ZM136.775 17V9.36364H138.261V17H136.775ZM137.525 8.18537C137.267 8.18537 137.045 8.09919 136.859 7.92685C136.677 7.75118 136.586 7.54238 136.586 7.30043C136.586 7.05516 136.677 6.84635 136.859 6.67401C137.045 6.49834 137.267 6.41051 137.525 6.41051C137.784 6.41051 138.004 6.49834 138.187 6.67401C138.372 6.84635 138.465 7.05516 138.465 7.30043C138.465 7.54238 138.372 7.75118 138.187 7.92685C138.004 8.09919 137.784 8.18537 137.525 8.18537ZM145.983 11.228L144.636 11.4666C144.58 11.2943 144.49 11.1302 144.368 10.9744C144.248 10.8187 144.086 10.6911 143.88 10.5916C143.675 10.4922 143.418 10.4425 143.11 10.4425C142.689 10.4425 142.337 10.5369 142.056 10.7259C141.774 10.9115 141.633 11.1518 141.633 11.4467C141.633 11.7019 141.728 11.9074 141.917 12.0632C142.105 12.219 142.41 12.3466 142.831 12.446L144.044 12.7244C144.747 12.8868 145.271 13.1371 145.615 13.4751C145.96 13.8132 146.132 14.2524 146.132 14.7926C146.132 15.25 146 15.6577 145.735 16.0156C145.473 16.3703 145.107 16.6487 144.636 16.8509C144.169 17.053 143.627 17.1541 143.01 17.1541C142.155 17.1541 141.458 16.9718 140.917 16.6072C140.377 16.2393 140.046 15.7173 139.923 15.0412L141.36 14.8224C141.449 15.197 141.633 15.4804 141.912 15.6726C142.19 15.8615 142.553 15.956 143 15.956C143.488 15.956 143.877 15.8549 144.169 15.6527C144.46 15.4472 144.606 15.197 144.606 14.902C144.606 14.6634 144.517 14.4628 144.338 14.3004C144.162 14.138 143.892 14.0154 143.527 13.9325L142.235 13.6491C141.522 13.4867 140.995 13.2282 140.654 12.8736C140.316 12.5189 140.147 12.0698 140.147 11.5263C140.147 11.0755 140.273 10.6811 140.525 10.343C140.776 10.005 141.124 9.74148 141.569 9.55256C142.013 9.36032 142.521 9.2642 143.095 9.2642C143.92 9.2642 144.57 9.44318 145.044 9.80114C145.518 10.1558 145.831 10.6314 145.983 11.228ZM153.489 11.228L152.142 11.4666C152.086 11.2943 151.996 11.1302 151.873 10.9744C151.754 10.8187 151.592 10.6911 151.386 10.5916C151.181 10.4922 150.924 10.4425 150.616 10.4425C150.195 10.4425 149.843 10.5369 149.562 10.7259C149.28 10.9115 149.139 11.1518 149.139 11.4467C149.139 11.7019 149.233 11.9074 149.422 12.0632C149.611 12.219 149.916 12.3466 150.337 12.446L151.55 12.7244C152.253 12.8868 152.777 13.1371 153.121 13.4751C153.466 13.8132 153.638 14.2524 153.638 14.7926C153.638 15.25 153.506 15.6577 153.241 16.0156C152.979 16.3703 152.613 16.6487 152.142 16.8509C151.675 17.053 151.133 17.1541 150.516 17.1541C149.661 17.1541 148.963 16.9718 148.423 16.6072C147.883 16.2393 147.551 15.7173 147.429 15.0412L148.866 14.8224C148.955 15.197 149.139 15.4804 149.417 15.6726C149.696 15.8615 150.059 15.956 150.506 15.956C150.993 15.956 151.383 15.8549 151.675 15.6527C151.966 15.4472 152.112 15.197 152.112 14.902C152.112 14.6634 152.023 14.4628 151.844 14.3004C151.668 14.138 151.398 14.0154 151.033 13.9325L149.741 13.6491C149.028 13.4867 148.501 13.2282 148.16 12.8736C147.822 12.5189 147.653 12.0698 147.653 11.5263C147.653 11.0755 147.778 10.6811 148.03 10.343C148.282 10.005 148.63 9.74148 149.074 9.55256C149.519 9.36032 150.027 9.2642 150.601 9.2642C151.426 9.2642 152.076 9.44318 152.55 9.80114C153.023 10.1558 153.337 10.6314 153.489 11.228ZM155.273 17V9.36364H156.759V17H155.273ZM156.023 8.18537C155.765 8.18537 155.543 8.09919 155.357 7.92685C155.175 7.75118 155.084 7.54238 155.084 7.30043C155.084 7.05516 155.175 6.84635 155.357 6.67401C155.543 6.49834 155.765 6.41051 156.023 6.41051C156.282 6.41051 156.502 6.49834 156.685 6.67401C156.87 6.84635 156.963 7.05516 156.963 7.30043C156.963 7.54238 156.87 7.75118 156.685 7.92685C156.502 8.09919 156.282 8.18537 156.023 8.18537ZM161.976 17.1541C161.26 17.1541 160.635 16.9901 160.101 16.6619C159.568 16.3338 159.153 15.8748 158.858 15.2848C158.564 14.6948 158.416 14.0054 158.416 13.2166C158.416 12.4245 158.564 11.7318 158.858 11.1385C159.153 10.5452 159.568 10.0845 160.101 9.75639C160.635 9.42827 161.26 9.2642 161.976 9.2642C162.692 9.2642 163.316 9.42827 163.85 9.75639C164.384 10.0845 164.798 10.5452 165.093 11.1385C165.388 11.7318 165.535 12.4245 165.535 13.2166C165.535 14.0054 165.388 14.6948 165.093 15.2848C164.798 15.8748 164.384 16.3338 163.85 16.6619C163.316 16.9901 162.692 17.1541 161.976 17.1541ZM161.981 15.9062C162.445 15.9062 162.829 15.7836 163.134 15.5384C163.439 15.2931 163.664 14.9666 163.81 14.5589C163.959 14.1513 164.034 13.7022 164.034 13.2116C164.034 12.7244 163.959 12.277 163.81 11.8693C163.664 11.4583 163.439 11.1286 163.134 10.88C162.829 10.6314 162.445 10.5071 161.981 10.5071C161.513 10.5071 161.126 10.6314 160.817 10.88C160.512 11.1286 160.285 11.4583 160.136 11.8693C159.99 12.277 159.917 12.7244 159.917 13.2116C159.917 13.7022 159.99 14.1513 160.136 14.5589C160.285 14.9666 160.512 15.2931 160.817 15.5384C161.126 15.7836 161.513 15.9062 161.981 15.9062ZM168.681 12.4659V17H167.195V9.36364H168.621V10.6065H168.716C168.892 10.2022 169.167 9.87737 169.541 9.6321C169.919 9.38684 170.395 9.2642 170.968 9.2642C171.488 9.2642 171.944 9.37358 172.335 9.59233C172.726 9.80777 173.03 10.1293 173.245 10.5568C173.46 10.9844 173.568 11.513 173.568 12.1428V17H172.082V12.3217C172.082 11.7682 171.938 11.3357 171.649 11.0241C171.361 10.7093 170.965 10.5518 170.461 10.5518C170.116 10.5518 169.81 10.6264 169.541 10.7756C169.276 10.9247 169.066 11.1435 168.91 11.4318C168.757 11.7169 168.681 12.0616 168.681 12.4659ZM180.246 17H178.616L182.28 6.81818H184.055L187.719 17H186.088L183.209 8.66761H183.13L180.246 17ZM180.52 13.0128H185.809V14.3054H180.52V13.0128ZM191.805 17.1491C191.189 17.1491 190.639 16.9917 190.155 16.6768C189.674 16.3587 189.296 15.9062 189.021 15.3196C188.749 14.7296 188.613 14.022 188.613 13.1967C188.613 12.3714 188.751 11.6655 189.026 11.0788C189.305 10.4922 189.686 10.0431 190.17 9.73153C190.653 9.41998 191.202 9.2642 191.815 9.2642C192.289 9.2642 192.67 9.34375 192.959 9.50284C193.25 9.65862 193.476 9.84091 193.635 10.0497C193.797 10.2585 193.923 10.4425 194.013 10.6016H194.102V6.81818H195.589V17H194.137V15.8118H194.013C193.923 15.9742 193.794 16.1598 193.625 16.3686C193.459 16.5774 193.23 16.7597 192.939 16.9155C192.647 17.0713 192.269 17.1491 191.805 17.1491ZM192.133 15.8814C192.561 15.8814 192.922 15.7687 193.217 15.5433C193.515 15.3146 193.741 14.9981 193.893 14.5938C194.049 14.1894 194.127 13.7187 194.127 13.1818C194.127 12.6515 194.051 12.1875 193.898 11.7898C193.746 11.392 193.522 11.0821 193.227 10.8601C192.932 10.638 192.568 10.527 192.133 10.527C191.686 10.527 191.313 10.643 191.015 10.875C190.716 11.107 190.491 11.4235 190.339 11.8246C190.189 12.2256 190.115 12.678 190.115 13.1818C190.115 13.6922 190.191 14.1513 190.344 14.5589C190.496 14.9666 190.721 15.2898 191.02 15.5284C191.321 15.7637 191.693 15.8814 192.133 15.8814ZM197.71 17V9.36364H199.137V10.6065H199.232C199.391 10.1856 199.651 9.85748 200.012 9.62216C200.373 9.38352 200.806 9.2642 201.31 9.2642C201.82 9.2642 202.248 9.38352 202.592 9.62216C202.94 9.8608 203.197 10.1889 203.363 10.6065H203.442C203.625 10.1989 203.915 9.87405 204.312 9.6321C204.71 9.38684 205.184 9.2642 205.734 9.2642C206.427 9.2642 206.992 9.4813 207.43 9.91548C207.871 10.3497 208.091 11.0043 208.091 11.8793V17H206.604V12.0185C206.604 11.5014 206.464 11.1269 206.182 10.8949C205.9 10.6629 205.564 10.5469 205.173 10.5469C204.689 10.5469 204.312 10.696 204.044 10.9943C203.776 11.2893 203.641 11.6688 203.641 12.1328V17H202.16V11.924C202.16 11.5097 202.031 11.1766 201.772 10.9247C201.513 10.6728 201.177 10.5469 200.763 10.5469C200.481 10.5469 200.221 10.6214 199.982 10.7706C199.747 10.9164 199.556 11.1203 199.411 11.3821C199.268 11.6439 199.197 11.9472 199.197 12.2919V17H197.71ZM210.083 17V9.36364H211.57V17H210.083ZM210.834 8.18537C210.575 8.18537 210.353 8.09919 210.168 7.92685C209.985 7.75118 209.894 7.54238 209.894 7.30043C209.894 7.05516 209.985 6.84635 210.168 6.67401C210.353 6.49834 210.575 6.41051 210.834 6.41051C211.093 6.41051 211.313 6.49834 211.495 6.67401C211.681 6.84635 211.774 7.05516 211.774 7.30043C211.774 7.54238 211.681 7.75118 211.495 7.92685C211.313 8.09919 211.093 8.18537 210.834 8.18537ZM215.056 12.4659V17H213.57V9.36364H214.996V10.6065H215.091C215.267 10.2022 215.542 9.87737 215.916 9.6321C216.294 9.38684 216.77 9.2642 217.343 9.2642C217.863 9.2642 218.319 9.37358 218.71 9.59233C219.101 9.80777 219.405 10.1293 219.62 10.5568C219.835 10.9844 219.943 11.513 219.943 12.1428V17H218.457V12.3217C218.457 11.7682 218.313 11.3357 218.024 11.0241C217.736 10.7093 217.34 10.5518 216.836 10.5518C216.491 10.5518 216.185 10.6264 215.916 10.7756C215.651 10.9247 215.441 11.1435 215.285 11.4318C215.132 11.7169 215.056 12.0616 215.056 12.4659Z" fill="#121212"/>
<path d="M61.8295 29.4545C61.7784 29.0227 61.571 28.6875 61.2074 28.4489C60.8438 28.2102 60.3977 28.0909 59.8693 28.0909C59.483 28.0909 59.1449 28.1534 58.8551 28.2784C58.5682 28.4034 58.3438 28.5753 58.1818 28.794C58.0227 29.0128 57.9432 29.2614 57.9432 29.5398C57.9432 29.7727 57.9986 29.973 58.1094 30.1406C58.223 30.3054 58.3679 30.4432 58.544 30.554C58.7202 30.6619 58.9048 30.7514 59.098 30.8224C59.2912 30.8906 59.4688 30.946 59.6307 30.9886L60.517 31.2273C60.7443 31.2869 60.9972 31.3693 61.2756 31.4744C61.5568 31.5795 61.8253 31.723 62.081 31.9048C62.3395 32.0838 62.5526 32.3139 62.7202 32.5952C62.8878 32.8764 62.9716 33.2216 62.9716 33.6307C62.9716 34.1023 62.848 34.5284 62.6009 34.9091C62.3565 35.2898 61.9986 35.5923 61.527 35.8168C61.0582 36.0412 60.4886 36.1534 59.8182 36.1534C59.1932 36.1534 58.652 36.0526 58.1946 35.8509C57.7401 35.6491 57.3821 35.3679 57.1207 35.0071C56.8622 34.6463 56.7159 34.2273 56.6818 33.75H57.7727C57.8011 34.0795 57.9119 34.3523 58.1051 34.5682C58.3011 34.7812 58.5483 34.9403 58.8466 35.0455C59.1477 35.1477 59.4716 35.1989 59.8182 35.1989C60.2216 35.1989 60.5838 35.1335 60.9048 35.0028C61.2259 34.8693 61.4801 34.6847 61.6676 34.4489C61.8551 34.2102 61.9489 33.9318 61.9489 33.6136C61.9489 33.3239 61.8679 33.0881 61.706 32.9062C61.544 32.7244 61.331 32.5767 61.0668 32.4631C60.8026 32.3494 60.517 32.25 60.2102 32.1648L59.1364 31.858C58.4545 31.6619 57.9148 31.3821 57.517 31.0185C57.1193 30.6548 56.9205 30.179 56.9205 29.5909C56.9205 29.1023 57.0526 28.6761 57.3168 28.3125C57.5838 27.946 57.9418 27.6619 58.3906 27.4602C58.8423 27.2557 59.3466 27.1534 59.9034 27.1534C60.4659 27.1534 60.9659 27.2543 61.4034 27.456C61.8409 27.6548 62.1875 27.9276 62.4432 28.2741C62.7017 28.6207 62.8381 29.0142 62.8523 29.4545H61.8295ZM67.3171 36.1364C66.6864 36.1364 66.1424 35.9972 65.685 35.7188C65.2305 35.4375 64.8796 35.0455 64.6325 34.5426C64.3881 34.0369 64.266 33.4489 64.266 32.7784C64.266 32.108 64.3881 31.517 64.6325 31.0057C64.8796 30.4915 65.2234 30.0909 65.6637 29.804C66.1069 29.5142 66.6239 29.3693 67.2148 29.3693C67.5558 29.3693 67.8924 29.4261 68.2248 29.5398C68.5572 29.6534 68.8597 29.8381 69.1325 30.0938C69.4052 30.3466 69.6225 30.6818 69.7844 31.0994C69.9464 31.517 70.0273 32.0312 70.0273 32.642V33.0682H64.9819V32.1989H69.0046C69.0046 31.8295 68.9308 31.5 68.783 31.2102C68.6381 30.9205 68.4308 30.6918 68.1609 30.5241C67.8938 30.3565 67.5785 30.2727 67.2148 30.2727C66.8143 30.2727 66.4677 30.3722 66.1751 30.571C65.8853 30.767 65.6623 31.0227 65.506 31.3381C65.3498 31.6534 65.2717 31.9915 65.2717 32.3523V32.9318C65.2717 33.4261 65.3569 33.8452 65.5273 34.1889C65.7006 34.5298 65.9407 34.7898 66.2475 34.9688C66.5543 35.1449 66.9109 35.233 67.3171 35.233C67.5813 35.233 67.82 35.196 68.033 35.1222C68.2489 35.0455 68.435 34.9318 68.5913 34.7812C68.7475 34.6278 68.8683 34.4375 68.9535 34.2102L69.9251 34.483C69.8228 34.8125 69.6509 35.1023 69.4094 35.3523C69.168 35.5994 68.8697 35.7926 68.5146 35.9318C68.1594 36.0682 67.7603 36.1364 67.3171 36.1364ZM73.4833 36.1534C73.0685 36.1534 72.6921 36.0753 72.354 35.919C72.016 35.7599 71.7475 35.5312 71.5487 35.233C71.3498 34.9318 71.2504 34.5682 71.2504 34.142C71.2504 33.767 71.3242 33.4631 71.4719 33.2301C71.6197 32.9943 71.8171 32.8097 72.0643 32.6761C72.3114 32.5426 72.5842 32.4432 72.8825 32.3778C73.1836 32.3097 73.4862 32.2557 73.7901 32.2159C74.1879 32.1648 74.5103 32.1264 74.7575 32.1009C75.0075 32.0724 75.1893 32.0256 75.3029 31.9602C75.4194 31.8949 75.4776 31.7812 75.4776 31.6193V31.5852C75.4776 31.1648 75.3626 30.8381 75.1325 30.6051C74.9052 30.3722 74.56 30.2557 74.0969 30.2557C73.6168 30.2557 73.2404 30.3608 72.9677 30.571C72.695 30.7812 72.5032 31.0057 72.3924 31.2443L71.4379 30.9034C71.6083 30.5057 71.8356 30.196 72.1197 29.9744C72.4066 29.75 72.7191 29.5937 73.0572 29.5057C73.3981 29.4148 73.7333 29.3693 74.0629 29.3693C74.2731 29.3693 74.5146 29.3949 74.7873 29.446C75.0629 29.4943 75.3285 29.5952 75.5842 29.7486C75.8427 29.902 76.0572 30.1335 76.2276 30.4432C76.3981 30.7528 76.4833 31.1676 76.4833 31.6875V36H75.4776V35.1136H75.4265C75.3583 35.2557 75.2447 35.4077 75.0856 35.5696C74.9265 35.7315 74.7148 35.8693 74.4506 35.983C74.1864 36.0966 73.864 36.1534 73.4833 36.1534ZM73.6367 35.25C74.0344 35.25 74.3697 35.1719 74.6424 35.0156C74.918 34.8594 75.1254 34.6577 75.2646 34.4105C75.4066 34.1634 75.4776 33.9034 75.4776 33.6307V32.7102C75.435 32.7614 75.3413 32.8082 75.1964 32.8509C75.0543 32.8906 74.8896 32.9261 74.7021 32.9574C74.5174 32.9858 74.337 33.0114 74.1609 33.0341C73.9876 33.054 73.8469 33.071 73.739 33.0852C73.4776 33.1193 73.2333 33.1747 73.006 33.2514C72.7816 33.3253 72.5998 33.4375 72.4606 33.5881C72.3242 33.7358 72.256 33.9375 72.256 34.1932C72.256 34.5426 72.3853 34.8068 72.6438 34.9858C72.9052 35.1619 73.2362 35.25 73.6367 35.25ZM78.3189 36V29.4545H79.2905V30.4432H79.3587C79.478 30.1193 79.6939 29.8565 80.0064 29.6548C80.3189 29.4531 80.6712 29.3523 81.0632 29.3523C81.1371 29.3523 81.2294 29.3537 81.3402 29.3565C81.451 29.3594 81.5348 29.3636 81.5916 29.3693V30.392C81.5575 30.3835 81.4794 30.3707 81.3572 30.3537C81.2379 30.3338 81.1115 30.3239 80.978 30.3239C80.6598 30.3239 80.3757 30.3906 80.1257 30.5241C79.8786 30.6548 79.6825 30.8366 79.5376 31.0696C79.3956 31.2997 79.3246 31.5625 79.3246 31.858V36H78.3189ZM85.2436 36.1364C84.63 36.1364 84.1016 35.9915 83.6584 35.7017C83.2152 35.4119 82.8743 35.0128 82.6357 34.5043C82.397 33.9957 82.2777 33.4148 82.2777 32.7614C82.2777 32.0966 82.3999 31.5099 82.6442 31.0014C82.8913 30.4901 83.2351 30.0909 83.6754 29.804C84.1186 29.5142 84.6357 29.3693 85.2266 29.3693C85.6868 29.3693 86.1016 29.4545 86.4709 29.625C86.8402 29.7955 87.1428 30.0341 87.3786 30.3409C87.6143 30.6477 87.7607 31.0057 87.8175 31.4148H86.8118C86.7351 31.1165 86.5646 30.8523 86.3004 30.6222C86.0391 30.3892 85.6868 30.2727 85.2436 30.2727C84.8516 30.2727 84.5078 30.375 84.2124 30.5795C83.9197 30.7812 83.6911 31.0668 83.5263 31.4361C83.3643 31.8026 83.2834 32.233 83.2834 32.7273C83.2834 33.233 83.3629 33.6733 83.522 34.0483C83.6839 34.4233 83.9112 34.7145 84.2038 34.9219C84.4993 35.1293 84.8459 35.233 85.2436 35.233C85.505 35.233 85.7422 35.1875 85.9553 35.0966C86.1683 35.0057 86.3487 34.875 86.4964 34.7045C86.6442 34.5341 86.7493 34.3295 86.8118 34.0909H87.8175C87.7607 34.4773 87.62 34.8253 87.3956 35.1349C87.174 35.4418 86.88 35.6861 86.5135 35.8679C86.1499 36.0469 85.7266 36.1364 85.2436 36.1364ZM90.2933 32.0625V36H89.2876V27.2727H90.2933V30.4773H90.3786C90.532 30.1392 90.7621 29.8707 91.0689 29.6719C91.3786 29.4702 91.7905 29.3693 92.3047 29.3693C92.7507 29.3693 93.1413 29.4588 93.4766 29.6378C93.8118 29.8139 94.0717 30.0852 94.2564 30.4517C94.4439 30.8153 94.5376 31.2784 94.5376 31.8409V36H93.532V31.9091C93.532 31.3892 93.397 30.9872 93.1271 30.7031C92.8601 30.4162 92.4893 30.2727 92.0149 30.2727C91.6854 30.2727 91.3899 30.3423 91.1286 30.4815C90.87 30.6207 90.6655 30.8239 90.5149 31.0909C90.3672 31.358 90.2933 31.6818 90.2933 32.0625ZM102.667 29.4545V30.3068H99.1388V29.4545H102.667ZM100.196 36V28.5511C100.196 28.1761 100.284 27.8636 100.46 27.6136C100.636 27.3636 100.865 27.1761 101.146 27.0511C101.427 26.9261 101.724 26.8636 102.037 26.8636C102.284 26.8636 102.485 26.8835 102.642 26.9233C102.798 26.9631 102.914 27 102.991 27.0341L102.701 27.9034C102.65 27.8864 102.579 27.8651 102.488 27.8395C102.4 27.8139 102.284 27.8011 102.139 27.8011C101.806 27.8011 101.566 27.8849 101.419 28.0526C101.274 28.2202 101.201 28.4659 101.201 28.7898V36H100.196ZM104.077 36V29.4545H105.048V30.4432H105.116C105.236 30.1193 105.452 29.8565 105.764 29.6548C106.077 29.4531 106.429 29.3523 106.821 29.3523C106.895 29.3523 106.987 29.3537 107.098 29.3565C107.209 29.3594 107.293 29.3636 107.349 29.3693V30.392C107.315 30.3835 107.237 30.3707 107.115 30.3537C106.996 30.3338 106.869 30.3239 106.736 30.3239C106.418 30.3239 106.134 30.3906 105.884 30.5241C105.636 30.6548 105.44 30.8366 105.295 31.0696C105.153 31.2997 105.082 31.5625 105.082 31.858V36H104.077ZM111.001 36.1364C110.411 36.1364 109.892 35.9957 109.446 35.7145C109.003 35.4332 108.656 35.0398 108.406 34.5341C108.159 34.0284 108.036 33.4375 108.036 32.7614C108.036 32.0795 108.159 31.4844 108.406 30.9759C108.656 30.4673 109.003 30.0724 109.446 29.7912C109.892 29.5099 110.411 29.3693 111.001 29.3693C111.592 29.3693 112.109 29.5099 112.553 29.7912C112.999 30.0724 113.345 30.4673 113.592 30.9759C113.842 31.4844 113.967 32.0795 113.967 32.7614C113.967 33.4375 113.842 34.0284 113.592 34.5341C113.345 35.0398 112.999 35.4332 112.553 35.7145C112.109 35.9957 111.592 36.1364 111.001 36.1364ZM111.001 35.233C111.45 35.233 111.82 35.1179 112.109 34.8878C112.399 34.6577 112.614 34.3551 112.753 33.9801C112.892 33.6051 112.962 33.1989 112.962 32.7614C112.962 32.3239 112.892 31.9162 112.753 31.5384C112.614 31.1605 112.399 30.8551 112.109 30.6222C111.82 30.3892 111.45 30.2727 111.001 30.2727C110.553 30.2727 110.183 30.3892 109.893 30.6222C109.604 30.8551 109.389 31.1605 109.25 31.5384C109.111 31.9162 109.041 32.3239 109.041 32.7614C109.041 33.1989 109.111 33.6051 109.25 33.9801C109.389 34.3551 109.604 34.6577 109.893 34.8878C110.183 35.1179 110.553 35.233 111.001 35.233ZM115.502 36V29.4545H116.474V30.4773H116.559C116.696 30.1278 116.916 29.8565 117.22 29.6634C117.524 29.4673 117.889 29.3693 118.315 29.3693C118.747 29.3693 119.106 29.4673 119.393 29.6634C119.683 29.8565 119.909 30.1278 120.071 30.4773H120.139C120.306 30.1392 120.558 29.8707 120.893 29.6719C121.228 29.4702 121.63 29.3693 122.099 29.3693C122.684 29.3693 123.163 29.5526 123.535 29.919C123.907 30.2827 124.093 30.8494 124.093 31.6193V36H123.088V31.6193C123.088 31.1364 122.956 30.7912 122.691 30.5838C122.427 30.3764 122.116 30.2727 121.758 30.2727C121.298 30.2727 120.941 30.4119 120.689 30.6903C120.436 30.9659 120.309 31.3153 120.309 31.7386V36H119.287V31.517C119.287 31.1449 119.166 30.8452 118.924 30.6179C118.683 30.3878 118.372 30.2727 117.991 30.2727C117.73 30.2727 117.485 30.3423 117.258 30.4815C117.034 30.6207 116.852 30.8139 116.713 31.0611C116.576 31.3054 116.508 31.5881 116.508 31.9091V36H115.502ZM129.307 29.4545H130.313V36.4773C130.313 36.8807 130.243 37.2301 130.104 37.5256C129.968 37.821 129.76 38.0497 129.482 38.2116C129.206 38.3736 128.858 38.4545 128.438 38.4545C128.404 38.4545 128.37 38.4545 128.336 38.4545C128.301 38.4545 128.267 38.4545 128.233 38.4545V37.517C128.267 37.517 128.299 37.517 128.327 37.517C128.355 37.517 128.387 37.517 128.421 37.517C128.728 37.517 128.952 37.4261 129.094 37.2443C129.236 37.0653 129.307 36.8097 129.307 36.4773V29.4545ZM129.801 28.3636C129.605 28.3636 129.436 28.2969 129.294 28.1634C129.155 28.0298 129.086 27.8693 129.086 27.6818C129.086 27.4943 129.155 27.3338 129.294 27.2003C129.436 27.0668 129.605 27 129.801 27C129.998 27 130.165 27.0668 130.304 27.2003C130.446 27.3338 130.517 27.4943 130.517 27.6818C130.517 27.8693 130.446 28.0298 130.304 28.1634C130.165 28.2969 129.998 28.3636 129.801 28.3636ZM134.814 36.1364C134.223 36.1364 133.705 35.9957 133.259 35.7145C132.815 35.4332 132.469 35.0398 132.219 34.5341C131.972 34.0284 131.848 33.4375 131.848 32.7614C131.848 32.0795 131.972 31.4844 132.219 30.9759C132.469 30.4673 132.815 30.0724 133.259 29.7912C133.705 29.5099 134.223 29.3693 134.814 29.3693C135.405 29.3693 135.922 29.5099 136.365 29.7912C136.811 30.0724 137.158 30.4673 137.405 30.9759C137.655 31.4844 137.78 32.0795 137.78 32.7614C137.78 33.4375 137.655 34.0284 137.405 34.5341C137.158 35.0398 136.811 35.4332 136.365 35.7145C135.922 35.9957 135.405 36.1364 134.814 36.1364ZM134.814 35.233C135.263 35.233 135.632 35.1179 135.922 34.8878C136.212 34.6577 136.426 34.3551 136.565 33.9801C136.705 33.6051 136.774 33.1989 136.774 32.7614C136.774 32.3239 136.705 31.9162 136.565 31.5384C136.426 31.1605 136.212 30.8551 135.922 30.6222C135.632 30.3892 135.263 30.2727 134.814 30.2727C134.365 30.2727 133.996 30.3892 133.706 30.6222C133.416 30.8551 133.202 31.1605 133.062 31.5384C132.923 31.9162 132.854 32.3239 132.854 32.7614C132.854 33.1989 132.923 33.6051 133.062 33.9801C133.202 34.3551 133.416 34.6577 133.706 34.8878C133.996 35.1179 134.365 35.233 134.814 35.233ZM139.315 36V29.4545H140.321V36H139.315ZM139.826 28.3636C139.63 28.3636 139.461 28.2969 139.319 28.1634C139.18 28.0298 139.11 27.8693 139.11 27.6818C139.11 27.4943 139.18 27.3338 139.319 27.2003C139.461 27.0668 139.63 27 139.826 27C140.022 27 140.19 27.0668 140.329 27.2003C140.471 27.3338 140.542 27.4943 140.542 27.6818C140.542 27.8693 140.471 28.0298 140.329 28.1634C140.19 28.2969 140.022 28.3636 139.826 28.3636ZM143.168 32.0625V36H142.163V29.4545H143.134V30.4773H143.219C143.373 30.1449 143.606 29.8778 143.918 29.6761C144.231 29.4716 144.634 29.3693 145.129 29.3693C145.572 29.3693 145.96 29.4602 146.292 29.642C146.624 29.821 146.883 30.0938 147.067 30.4602C147.252 30.8239 147.344 31.2841 147.344 31.8409V36H146.339V31.9091C146.339 31.3949 146.205 30.9943 145.938 30.7074C145.671 30.4176 145.305 30.2727 144.839 30.2727C144.518 30.2727 144.231 30.3423 143.978 30.4815C143.728 30.6207 143.531 30.8239 143.386 31.0909C143.241 31.358 143.168 31.6818 143.168 32.0625ZM151.926 36.1364C151.296 36.1364 150.752 35.9972 150.294 35.7188C149.84 35.4375 149.489 35.0455 149.242 34.5426C148.998 34.0369 148.875 33.4489 148.875 32.7784C148.875 32.108 148.998 31.517 149.242 31.0057C149.489 30.4915 149.833 30.0909 150.273 29.804C150.716 29.5142 151.233 29.3693 151.824 29.3693C152.165 29.3693 152.502 29.4261 152.834 29.5398C153.167 29.6534 153.469 29.8381 153.742 30.0938C154.015 30.3466 154.232 30.6818 154.394 31.0994C154.556 31.517 154.637 32.0312 154.637 32.642V33.0682H149.591V32.1989H153.614C153.614 31.8295 153.54 31.5 153.392 31.2102C153.248 30.9205 153.04 30.6918 152.77 30.5241C152.503 30.3565 152.188 30.2727 151.824 30.2727C151.424 30.2727 151.077 30.3722 150.784 30.571C150.495 30.767 150.272 31.0227 150.115 31.3381C149.959 31.6534 149.881 31.9915 149.881 32.3523V32.9318C149.881 33.4261 149.966 33.8452 150.137 34.1889C150.31 34.5298 150.55 34.7898 150.857 34.9688C151.164 35.1449 151.52 35.233 151.926 35.233C152.191 35.233 152.429 35.196 152.642 35.1222C152.858 35.0455 153.044 34.9318 153.201 34.7812C153.357 34.6278 153.478 34.4375 153.563 34.2102L154.534 34.483C154.432 34.8125 154.26 35.1023 154.019 35.3523C153.777 35.5994 153.479 35.7926 153.124 35.9318C152.769 36.0682 152.37 36.1364 151.926 36.1364ZM158.638 36.1364C158.093 36.1364 157.611 35.9986 157.194 35.723C156.776 35.4446 156.449 35.0526 156.213 34.5469C155.978 34.0384 155.86 33.4375 155.86 32.7443C155.86 32.0568 155.978 31.4602 156.213 30.9545C156.449 30.4489 156.777 30.0582 157.198 29.7827C157.618 29.5071 158.104 29.3693 158.655 29.3693C159.081 29.3693 159.418 29.4403 159.665 29.5824C159.915 29.7216 160.105 29.8807 160.236 30.0597C160.37 30.2358 160.473 30.3807 160.547 30.4943H160.632V27.2727H161.638V36H160.667V34.9943H160.547C160.473 35.1136 160.368 35.2642 160.232 35.446C160.096 35.625 159.901 35.7855 159.648 35.9276C159.395 36.0668 159.059 36.1364 158.638 36.1364ZM158.775 35.233C159.178 35.233 159.519 35.1278 159.797 34.9176C160.076 34.7045 160.287 34.4105 160.432 34.0355C160.577 33.6577 160.65 33.2216 160.65 32.7273C160.65 32.2386 160.578 31.8111 160.436 31.4446C160.294 31.0753 160.084 30.7884 159.806 30.5838C159.527 30.3764 159.184 30.2727 158.775 30.2727C158.348 30.2727 157.993 30.3821 157.709 30.6009C157.428 30.8168 157.216 31.1108 157.074 31.483C156.935 31.8523 156.865 32.267 156.865 32.7273C156.865 33.1932 156.936 33.6165 157.078 33.9972C157.223 34.375 157.436 34.6761 157.718 34.9006C158.002 35.1222 158.354 35.233 158.775 35.233ZM168 27.2727V36H166.995V27.2727H168ZM169.842 36V29.4545H170.848V36H169.842ZM170.354 28.3636C170.158 28.3636 169.989 28.2969 169.847 28.1634C169.707 28.0298 169.638 27.8693 169.638 27.6818C169.638 27.4943 169.707 27.3338 169.847 27.2003C169.989 27.0668 170.158 27 170.354 27C170.55 27 170.717 27.0668 170.857 27.2003C170.999 27.3338 171.07 27.4943 171.07 27.6818C171.07 27.8693 170.999 28.0298 170.857 28.1634C170.717 28.2969 170.55 28.3636 170.354 28.3636ZM177.326 30.9205L176.423 31.1761C176.366 31.0256 176.282 30.8793 176.172 30.7372C176.064 30.5923 175.916 30.473 175.728 30.3793C175.541 30.2855 175.301 30.2386 175.008 30.2386C174.608 30.2386 174.274 30.331 174.007 30.5156C173.743 30.6974 173.61 30.929 173.61 31.2102C173.61 31.4602 173.701 31.6577 173.883 31.8026C174.065 31.9474 174.349 32.0682 174.735 32.1648L175.707 32.4034C176.292 32.5455 176.728 32.7628 177.015 33.0554C177.302 33.3452 177.446 33.7187 177.446 34.1761C177.446 34.5511 177.338 34.8864 177.122 35.1818C176.909 35.4773 176.61 35.7102 176.227 35.8807C175.843 36.0511 175.397 36.1364 174.889 36.1364C174.221 36.1364 173.669 35.9915 173.231 35.7017C172.794 35.4119 172.517 34.9886 172.4 34.4318L173.355 34.1932C173.446 34.5455 173.618 34.8097 173.87 34.9858C174.126 35.1619 174.46 35.25 174.872 35.25C175.341 35.25 175.713 35.1506 175.988 34.9517C176.267 34.75 176.406 34.5085 176.406 34.2273C176.406 34 176.326 33.8097 176.167 33.6562C176.008 33.5 175.764 33.3835 175.434 33.3068L174.343 33.0511C173.744 32.9091 173.304 32.6889 173.022 32.3906C172.744 32.0895 172.605 31.7131 172.605 31.2614C172.605 30.892 172.708 30.5653 172.916 30.2812C173.126 29.9972 173.412 29.7741 173.772 29.6122C174.136 29.4503 174.548 29.3693 175.008 29.3693C175.656 29.3693 176.164 29.5114 176.534 29.7955C176.906 30.0795 177.17 30.4545 177.326 30.9205ZM181.806 29.4545V30.3068H178.414V29.4545H181.806ZM179.403 27.8864H180.408V34.125C180.408 34.4091 180.45 34.6222 180.532 34.7642C180.617 34.9034 180.725 34.9972 180.856 35.0455C180.989 35.0909 181.13 35.1136 181.278 35.1136C181.388 35.1136 181.479 35.108 181.55 35.0966C181.621 35.0824 181.678 35.071 181.721 35.0625L181.925 35.9659C181.857 35.9915 181.762 36.017 181.64 36.0426C181.518 36.071 181.363 36.0852 181.175 36.0852C180.891 36.0852 180.613 36.0241 180.34 35.902C180.07 35.7798 179.846 35.5938 179.667 35.3438C179.491 35.0938 179.403 34.7784 179.403 34.3977V27.8864Z" fill="#121212" fill-opacity="0.6"/>
<circle cx="21" cy="21" r="21" fill="#DADADA"/>
<path d="M26.3295 25.1855H14.7764C11.5862 25.1855 8.99991 27.7718 8.99991 30.9621V33.8504H20.553H32.1061V30.9621C32.1061 27.7718 29.5198 25.1855 26.3295 25.1855Z" fill="#C4C4C4"/>
<path d="M20.553 19.5531C23.7432 19.5531 26.3295 16.9668 26.3295 13.7765C26.3295 10.5862 23.7432 8 20.553 8C17.3627 8 14.7764 10.5862 14.7764 13.7765C14.7764 16.9668 17.3627 19.5531 20.553 19.5531Z" fill="#C4C4C4"/>
</svg>
