<svg width="24" height="24" viewBox="0 0 24 24" fill="none" xmlns="http://www.w3.org/2000/svg">
<path d="M18 20.15H18.15V20V9V8.85H18H13.15V4V3.85H13H6H5.85V4V20V20.15H6H18ZM9.73335 17.6851L10.3455 15.2364L10.3679 15.1468L10.298 15.0865L8.37374 13.4246L10.9103 13.2496L11.0036 13.2432L11.0389 13.1566L12.0026 10.7911L12.9619 13.0584L12.9978 13.1433L13.0897 13.1496L15.6263 13.3246L13.702 14.9865L13.6321 15.0468L13.6545 15.1364L14.2702 17.5994L12.0733 16.3691L11.9974 16.3266L11.9228 16.3714L9.73335 17.6851ZM6 2.15H13.9379L19.85 8.06213V20C19.85 21.0172 19.0172 21.85 18 21.85H6C4.98284 21.85 4.15 21.0172 4.15 20V4C4.15 2.98284 4.98284 2.15 6 2.15Z" fill="#121212" fill-opacity="0.8" stroke="white" stroke-width="0.3"/>
</svg>
