<svg width="50" height="50" viewBox="0 0 50 50" fill="none" xmlns="http://www.w3.org/2000/svg">
<path d="M28.875 25.875C29.25 25.875 29.5833 25.7396 29.875 25.4688C30.1667 25.1979 30.3542 24.8542 30.4375 24.4375C30.5625 23.7708 30.7917 23.1875 31.125 22.6875C31.4583 22.1875 32.0417 21.5417 32.875 20.75C34 19.6667 34.7812 18.7188 35.2188 17.9062C35.6562 17.0938 35.875 16.1458 35.875 15.0625C35.875 13.1458 35.2188 11.5833 33.9062 10.375C32.5938 9.16667 30.875 8.5625 28.75 8.5625C27.4167 8.5625 26.1875 8.86458 25.0625 9.46875C23.9375 10.0729 23.0417 10.9375 22.375 12.0625C22.1667 12.3958 22.1458 12.7604 22.3125 13.1562C22.4792 13.5521 22.7708 13.8542 23.1875 14.0625C23.5208 14.2292 23.8958 14.2396 24.3125 14.0938C24.7292 13.9479 25.0625 13.6875 25.3125 13.3125C25.7708 12.6875 26.2812 12.2188 26.8438 11.9062C27.4062 11.5938 28.0417 11.4375 28.75 11.4375C30 11.4375 31.0104 11.7917 31.7812 12.5C32.5521 13.2083 32.9375 14.1042 32.9375 15.1875C32.9375 16.0208 32.75 16.75 32.375 17.375C32 18 31.3333 18.6667 30.375 19.375C29.2917 20.375 28.5521 21.1979 28.1562 21.8438C27.7604 22.4896 27.5208 23.3542 27.4375 24.4375C27.3958 24.8542 27.5208 25.1979 27.8125 25.4688C28.1042 25.7396 28.4583 25.875 28.875 25.875ZM28.9375 33.75C29.6458 33.75 30.25 33.5 30.75 33C31.25 32.5 31.5 31.8958 31.5 31.1875C31.5 30.4792 31.25 29.875 30.75 29.375C30.25 28.875 29.6458 28.625 28.9375 28.625C28.2292 28.625 27.625 28.875 27.125 29.375C26.625 29.875 26.375 30.4792 26.375 31.1875C26.375 31.8958 26.625 32.5 27.125 33C27.625 33.5 28.2292 33.75 28.9375 33.75ZM11.25 42.5C10.25 42.5 9.375 42.125 8.625 41.375C7.875 40.625 7.5 39.75 7.5 38.75V3.75C7.5 2.75 7.875 1.875 8.625 1.125C9.375 0.375 10.25 0 11.25 0H46.25C47.25 0 48.125 0.375 48.875 1.125C49.625 1.875 50 2.75 50 3.75V38.75C50 39.75 49.625 40.625 48.875 41.375C48.125 42.125 47.25 42.5 46.25 42.5H11.25ZM3.75 50C2.75 50 1.875 49.625 1.125 48.875C0.375 48.125 0 47.25 0 46.25V9.375C0 8.83333 0.177084 8.38542 0.53125 8.03125C0.885417 7.67708 1.33333 7.5 1.875 7.5C2.41667 7.5 2.86458 7.67708 3.21875 8.03125C3.57292 8.38542 3.75 8.83333 3.75 9.375V46.25H40.625C41.1667 46.25 41.6146 46.4271 41.9688 46.7812C42.3229 47.1354 42.5 47.5833 42.5 48.125C42.5 48.6667 42.3229 49.1146 41.9688 49.4688C41.6146 49.8229 41.1667 50 40.625 50H3.75Z" fill="#723000" fill-opacity="0.8"/>
</svg>
