<svg width="64" height="64" viewBox="0 0 64 64" fill="none" xmlns="http://www.w3.org/2000/svg">
<rect opacity="0.75" width="64" height="64" rx="6" fill="#F5F0F7"/>
<path d="M36.0004 32C38.7604 32 41.0004 29.76 41.0004 27C41.0004 24.24 38.7604 22 36.0004 22C33.2404 22 31.0004 24.24 31.0004 27C31.0004 29.76 33.2404 32 36.0004 32ZM41.4504 37.6C41.0604 37.2 40.5704 37 40.0004 37H33.0004L30.9204 36.27L31.2504 35.33L33.0004 36H35.8004C36.1504 36 36.4304 35.86 36.6604 35.63C36.8904 35.4 37.0004 35.12 37.0004 34.81C37.0004 34.27 36.7404 33.9 36.2204 33.69L28.9504 31H27.0004V40L34.0004 42L42.0304 39C42.0404 38.47 41.8404 38 41.4504 37.6ZM25.0004 31H20.9844V42H25.0004V31Z" fill="#121212" fill-opacity="0.7"/>
</svg>
