<svg width="24" height="24" viewBox="0 0 24 24" fill="none" xmlns="http://www.w3.org/2000/svg">
<path d="M4 5.85H3.85V6V16V16.15H4H20H20.15V16V6V5.85H20H4ZM4 18V17.85C3.50935 17.85 3.03879 17.6551 2.69185 17.3081C2.34491 16.9612 2.15 16.4907 2.15 16V6C2.15 4.97284 2.97284 4.15 4 4.15H20C21.0176 4.15 21.85 4.97333 21.85 6V16C21.85 16.4907 21.6551 16.9612 21.3081 17.3081C20.9612 17.6551 20.4907 17.85 20 17.85V18V18.15H23.85V19.85H0.15V18.15H4V18Z" fill="#121212" fill-opacity="0.8" stroke="white" stroke-width="0.3"/>
</svg>
