<svg width="64" height="64" viewBox="0 0 64 64" fill="none" xmlns="http://www.w3.org/2000/svg">
<path d="M0 6C0 2.68629 2.68629 0 6 0H58C61.3137 0 64 2.68629 64 6V58C64 61.3137 61.3137 64 58 64H6C2.68629 64 0 61.3137 0 58V6Z" fill="#420789"/>
<path d="M40 22H24C22.9 22 22 22.9 22 24V36C22 37.1 22.9 38 24 38H28V41C28 41.6 28.4 42 29 42H29.5C29.7 42 30 41.9 30.2 41.7L33.9 38H40C41.1 38 42 37.1 42 36V24C42 22.9 41.1 22 40 22ZM31 33H27V28.8L28.3 26H30.3L28.9 29H31V33ZM37 33H33V28.8L34.3 26H36.3L34.9 29H37V33Z" fill="white"/>
</svg>
