<svg width="64" height="64" viewBox="0 0 64 64" fill="none" xmlns="http://www.w3.org/2000/svg">
<rect width="64" height="64" rx="6" fill="#420789"/>
<path d="M39 23H34.82C34.4 21.84 33.3 21 32 21C30.7 21 29.6 21.84 29.18 23H25C23.9 23 23 23.9 23 25V39C23 40.1 23.9 41 25 41H39C40.1 41 41 40.1 41 39V25C41 23.9 40.1 23 39 23ZM32 23C32.55 23 33 23.45 33 24C33 24.55 32.55 25 32 25C31.45 25 31 24.55 31 24C31 23.45 31.45 23 32 23ZM32 27C33.66 27 35 28.34 35 30C35 31.66 33.66 33 32 33C30.34 33 29 31.66 29 30C29 28.34 30.34 27 32 27ZM38 39H26V37.6C26 35.6 30 34.5 32 34.5C34 34.5 38 35.6 38 37.6V39Z" fill="white"/>
</svg>
