<svg width="50" height="50" viewBox="0 0 50 50" fill="none" xmlns="http://www.w3.org/2000/svg">
<path d="M18.4375 31.4375H39.125C39.5417 31.4375 39.8333 31.2708 40 30.9375C40.1667 30.6042 40.125 30.2708 39.875 29.9375L33.8125 21.75C33.6042 21.5 33.3542 21.375 33.0625 21.375C32.7708 21.375 32.5208 21.5 32.3125 21.75L26.625 29.1875L23.125 24.6875C22.9167 24.4375 22.6667 24.3125 22.375 24.3125C22.0833 24.3125 21.8333 24.4583 21.625 24.75L17.6875 29.9375C17.4375 30.2708 17.4062 30.6042 17.5938 30.9375C17.7812 31.2708 18.0625 31.4375 18.4375 31.4375ZM11.25 42.5C10.25 42.5 9.375 42.125 8.625 41.375C7.875 40.625 7.5 39.75 7.5 38.75V3.75C7.5 2.75 7.875 1.875 8.625 1.125C9.375 0.375 10.25 0 11.25 0H46.25C47.25 0 48.125 0.375 48.875 1.125C49.625 1.875 50 2.75 50 3.75V38.75C50 39.75 49.625 40.625 48.875 41.375C48.125 42.125 47.25 42.5 46.25 42.5H11.25ZM3.75 50C2.75 50 1.875 49.625 1.125 48.875C0.375 48.125 0 47.25 0 46.25V9.375C0 8.83333 0.177084 8.38542 0.53125 8.03125C0.885417 7.67708 1.33333 7.5 1.875 7.5C2.41667 7.5 2.86458 7.67708 3.21875 8.03125C3.57292 8.38542 3.75 8.83333 3.75 9.375V46.25H40.625C41.1667 46.25 41.6146 46.4271 41.9688 46.7812C42.3229 47.1354 42.5 47.5833 42.5 48.125C42.5 48.6667 42.3229 49.1146 41.9688 49.4688C41.6146 49.8229 41.1667 50 40.625 50H3.75Z" fill="#007205" fill-opacity="0.8"/>
</svg>
