<svg width="24" height="24" viewBox="0 0 24 24" fill="none" xmlns="http://www.w3.org/2000/svg">
<path d="M23.5134 4.31765L12.5269 0.0956236C12.1874 -0.0318745 11.8131 -0.0318745 11.4736 0.0956236L0.486562 4.31765C0.343641 4.37128 0.220484 4.46724 0.133542 4.59271C0.0465997 4.71818 1.14503e-05 4.86719 0 5.01984L0 6.75C0 7.16437 0.335625 7.5 0.75 7.5H23.25C23.6644 7.5 24 7.16437 24 6.75V5.01984C24 4.70719 23.8059 4.42734 23.5134 4.31765ZM3 9V16.5H2.25C1.83562 16.5 1.5 16.8356 1.5 17.25V19.5H22.5V17.25C22.5 16.8356 22.1644 16.5 21.75 16.5H21V9H18V16.5H13.5V9H10.5V16.5H6V9H3ZM23.25 21H0.75C0.335625 21 0 21.3356 0 21.75V23.25C0 23.6644 0.335625 24 0.75 24H23.25C23.6644 24 24 23.6644 24 23.25V21.75C24 21.3356 23.6644 21 23.25 21Z" fill="#121212" fill-opacity="0.8"/>
</svg>
