<svg width="64" height="64" viewBox="0 0 64 64" fill="none" xmlns="http://www.w3.org/2000/svg">
<rect opacity="0.95" width="64" height="64" rx="6" fill="#420789"/>
<path d="M43.5134 24.3177L32.5269 20.0956C32.1874 19.9681 31.8131 19.9681 31.4736 20.0956L20.4866 24.3177C20.3436 24.3713 20.2205 24.4672 20.1335 24.5927C20.0466 24.7182 20 24.8672 20 25.0198V26.75C20 27.1644 20.3356 27.5 20.75 27.5H43.25C43.6644 27.5 44 27.1644 44 26.75V25.0198C44 24.7072 43.8059 24.4273 43.5134 24.3177ZM23 29V36.5H22.25C21.8356 36.5 21.5 36.8356 21.5 37.25V39.5H42.5V37.25C42.5 36.8356 42.1644 36.5 41.75 36.5H41V29H38V36.5H33.5V29H30.5V36.5H26V29H23ZM43.25 41H20.75C20.3356 41 20 41.3356 20 41.75V43.25C20 43.6644 20.3356 44 20.75 44H43.25C43.6644 44 44 43.6644 44 43.25V41.75C44 41.3356 43.6644 41 43.25 41Z" fill="white"/>
</svg>
