<svg width="156" height="56" viewBox="0 0 156 56" fill="none" xmlns="http://www.w3.org/2000/svg">
<path d="M7.04889 33.9258C7.63269 34.6703 8.21649 35.4148 8.80029 36.1539C8.92883 36.3146 8.94495 36.4699 8.84854 36.652C8.6343 37.0591 8.4254 37.4661 8.22187 37.8785C7.68628 38.9658 7.17747 40.0637 6.62046 41.1403C6.18127 41.9919 5.82239 42.8756 5.71527 43.8129C5.5653 45.1251 5.65102 46.4427 6.14377 47.6906C6.96858 49.774 8.31291 51.429 10.2785 52.5431C10.6856 52.7734 10.6749 52.768 10.9373 52.3663C12.1531 50.5132 13.3689 48.66 14.5954 46.8122C14.9971 46.207 15.4042 45.5964 15.8005 44.9858L7.04889 33.9258Z" fill="#420789"/>
<path d="M18.452 31.8671C17.8575 30.5656 17.0863 29.3391 16.3525 28.1018C15.5598 26.7682 14.7136 25.4614 13.8941 24.1438C13.0961 22.8584 12.2981 21.573 11.5001 20.2875C10.6913 18.9914 9.88254 17.6953 9.0738 16.3938C8.41502 15.328 7.77229 14.2568 7.11351 13.1909C6.36368 11.9805 5.60851 10.7754 4.85332 9.57032C4.37664 8.80978 3.90536 8.04924 3.41797 7.26727C3.34298 7.31012 3.31085 7.32083 3.28943 7.34761C2.56102 8.27419 1.96646 9.2811 1.48978 10.3576C0.997035 11.4663 0.59534 12.6125 0.418594 13.8176C0.263272 14.8727 0.0972539 15.9332 0.0329827 16.999C-0.0420003 18.1612 0.00619523 19.3342 0.225788 20.4857C0.402534 21.3909 0.547139 22.3067 0.75602 23.2065C0.884563 23.7689 1.06136 24.3206 1.28096 24.8562C1.70408 25.8952 2.1325 26.9343 2.63596 27.9358C3.27331 29.1998 4.15704 30.3031 5.04613 31.4065C5.72097 32.242 6.3851 33.0882 7.04924 33.9291L15.7473 45.0802C16.54 43.859 17.3487 42.5307 17.9646 41.2025C18.5056 40.0402 18.9341 38.8458 19.1751 37.5711C19.55 35.5734 19.2769 33.6667 18.452 31.8671Z" fill="#A884D2"/>
<path d="M39.9519 16.0837C39.9144 15.3285 39.8126 14.6697 39.6787 13.9145C39.6573 13.802 39.6305 13.6896 39.6091 13.5717C39.5448 13.1915 39.4217 12.7094 39.3146 12.3452C38.9129 11.0116 38.3986 9.72081 37.6649 8.52644C37.3542 8.02298 37.0008 7.54095 36.6366 7C35.8975 8.1783 35.2065 9.2602 34.5263 10.3528C33.6962 11.6864 32.8821 13.0308 32.0572 14.3698C31.3985 15.4356 30.7344 16.5014 30.0756 17.5673C29.2829 18.8473 28.4902 20.1274 27.6921 21.4021C26.953 22.5858 26.1818 23.7534 25.4694 24.9531L31.0931 36.4041C31.0717 36.2862 31.0932 36.1684 31.2003 36.0399C31.6395 35.5096 32.0465 34.958 32.4697 34.417C33.5783 33.0084 34.6924 31.5998 35.801 30.1912C36.6901 29.0557 37.4346 27.8239 38.0077 26.5063C38.4201 25.5583 38.8272 24.5942 39.1057 23.598C39.411 22.5108 39.5609 21.3807 39.7805 20.2666C40.0537 18.8848 40.0215 17.4816 39.9519 16.0837Z" fill="#420789"/>
<g opacity="0.55" filter="url(#filter0_d_2_704)">
<path d="M31.0271 36.321L31.9465 35.0541L25.473 24.9611L31.0271 36.321Z" fill="#121212" fill-opacity="0.8" shape-rendering="crispEdges"/>
</g>
<path d="M32.8553 40.1653C32.6464 39.7315 32.4858 39.2762 32.2769 38.8424C31.9127 38.0818 31.5324 37.3374 31.1575 36.5822C31.1307 36.5233 31.1093 36.4697 31.0985 36.4162L25.4748 24.9652C26.1872 23.7654 26.9584 22.6032 27.6975 21.4142C26.8888 22.7103 26.0372 23.9797 25.2713 25.3026C24.3769 26.8505 23.5307 28.4251 22.7005 30.0051C21.8328 31.6601 21.174 33.3954 20.8045 35.2432C20.3867 37.3481 20.7134 39.3244 21.7525 41.1454C22.6576 42.7254 23.7074 44.2197 24.7036 45.7462C25.582 47.0905 26.4764 48.4188 27.3601 49.7524C28.0082 50.7326 28.6616 51.718 29.3204 52.7142C29.5989 52.5482 29.8613 52.409 30.1024 52.2429C30.3755 52.0608 30.6487 51.868 30.9004 51.6538C32.9678 49.8917 34.2371 47.7332 34.3121 44.9481C34.3442 43.6681 33.9854 42.5005 33.4926 41.3329C33.2891 40.9419 33.0481 40.5616 32.8553 40.1653Z" fill="#A884D2"/>
<path opacity="0.3" d="M15.7071 45.0081L8.94251 36.4225L8.31055 37.7187L15.7071 45.0081Z" fill="#121212" fill-opacity="0.8"/>
<path d="M60.3672 19.6641C60.3672 16.2461 61.2923 13.5254 63.1426 11.502C64.9928 9.47852 67.4993 8.4668 70.6621 8.4668C73.6061 8.4668 75.9759 9.45573 77.7715 11.4336C79.5671 13.4115 80.4648 15.9863 80.4648 19.1582C80.4648 22.5944 79.5443 25.3197 77.7031 27.334C77.2656 27.8079 76.7962 28.2272 76.2949 28.5918L82.2422 32.8574H77.7441L73.7246 29.877C72.6855 30.196 71.5508 30.3555 70.3203 30.3555C67.3125 30.3555 64.9017 29.3665 63.0879 27.3887C61.2741 25.4108 60.3672 22.8359 60.3672 19.6641ZM63.2383 19.4453C63.2383 22.0065 63.89 24.0618 65.1934 25.6113C66.5059 27.1517 68.2148 27.9219 70.3203 27.9219C72.5807 27.9219 74.3535 27.1836 75.6387 25.707C76.9329 24.2214 77.5801 22.1478 77.5801 19.4863C77.5801 16.752 76.9466 14.6419 75.6797 13.1562C74.4219 11.6706 72.6947 10.9277 70.498 10.9277C68.3379 10.9277 66.5879 11.7116 65.248 13.2793C63.9082 14.847 63.2383 16.9023 63.2383 19.4453ZM96.4062 14.8789L90.418 30H87.7109L82.0234 14.8789H84.9492L88.6406 25.6797C88.9414 26.5456 89.1191 27.2702 89.1738 27.8535H89.2422C89.3333 27.0879 89.4928 26.3815 89.7207 25.7344L93.5898 14.8789H96.4062ZM98.6074 9.54688C98.6074 9.07292 98.7669 8.67643 99.0859 8.35742C99.4141 8.0293 99.8151 7.86523 100.289 7.86523C100.772 7.86523 101.178 8.02474 101.506 8.34375C101.843 8.66276 102.012 9.0638 102.012 9.54688C102.012 10.0208 101.843 10.4173 101.506 10.7363C101.178 11.0462 100.772 11.2012 100.289 11.2012C99.806 11.2012 99.4049 11.0462 99.0859 10.7363C98.7669 10.4173 98.6074 10.0208 98.6074 9.54688ZM98.9219 30V14.8789H101.602V30H98.9219ZM109.08 27.8672V36.959H106.4V14.8789H109.08V17.4902H109.135C110.32 15.5124 112.051 14.5234 114.33 14.5234C116.262 14.5234 117.775 15.2025 118.869 16.5605C119.972 17.9095 120.523 19.7233 120.523 22.002C120.523 24.5176 119.899 26.541 118.65 28.0723C117.411 29.5944 115.738 30.3555 113.633 30.3555C111.691 30.3555 110.192 29.526 109.135 27.8672H109.08ZM109.066 23.7656C109.066 24.9961 109.463 26.0352 110.256 26.8828C111.049 27.7214 112.042 28.1406 113.236 28.1406C114.658 28.1406 115.77 27.5938 116.572 26.5C117.374 25.4062 117.775 23.8932 117.775 21.9609C117.775 20.3294 117.402 19.0534 116.654 18.1328C115.907 17.2031 114.886 16.7383 113.592 16.7383C112.27 16.7383 111.186 17.2077 110.338 18.1465C109.49 19.0853 109.066 20.2884 109.066 21.7559V23.7656ZM124.27 30V7.61914H126.949V30H124.27ZM144.066 23.123H133.484C133.53 24.7363 133.972 25.985 134.811 26.8691C135.649 27.7441 136.82 28.1816 138.324 28.1816C140.02 28.1816 141.574 27.6393 142.986 26.5547V28.9473C141.656 29.8861 139.892 30.3555 137.695 30.3555C135.508 30.3555 133.799 29.6628 132.568 28.2773C131.347 26.8919 130.736 24.9688 130.736 22.5078C130.736 20.1927 131.406 18.2832 132.746 16.7793C134.095 15.2754 135.768 14.5234 137.764 14.5234C139.742 14.5234 141.286 15.1615 142.398 16.4375C143.51 17.7044 144.066 19.4818 144.066 21.7695V23.123ZM141.387 20.9766C141.378 19.6094 141.054 18.5521 140.416 17.8047C139.778 17.0573 138.88 16.6836 137.723 16.6836C136.656 16.6836 135.731 17.0801 134.947 17.873C134.173 18.666 133.685 19.7005 133.484 20.9766H141.387Z" fill="#420789"/>
<path d="M50.4474 53V44.2727H55.7145V45.2102H51.5043V48.1591H55.4418V49.0966H51.5043V52.0625H55.7827V53H50.4474ZM57.483 53V46.4545H58.4545V47.4773H58.5398C58.6761 47.1278 58.8963 46.8565 59.2003 46.6634C59.5043 46.4673 59.8693 46.3693 60.2955 46.3693C60.7273 46.3693 61.0866 46.4673 61.3736 46.6634C61.6634 46.8565 61.8892 47.1278 62.0511 47.4773H62.1193C62.2869 47.1392 62.5384 46.8707 62.8736 46.6719C63.2088 46.4702 63.6108 46.3693 64.0795 46.3693C64.6648 46.3693 65.1435 46.5526 65.5156 46.919C65.8878 47.2827 66.0739 47.8494 66.0739 48.6193V53H65.0682V48.6193C65.0682 48.1364 64.9361 47.7912 64.6719 47.5838C64.4077 47.3764 64.0966 47.2727 63.7386 47.2727C63.2784 47.2727 62.9219 47.4119 62.669 47.6903C62.4162 47.9659 62.2898 48.3153 62.2898 48.7386V53H61.267V48.517C61.267 48.1449 61.1463 47.8452 60.9048 47.6179C60.6634 47.3878 60.3523 47.2727 59.9716 47.2727C59.7102 47.2727 59.4659 47.3423 59.2386 47.4815C59.0142 47.6207 58.8324 47.8139 58.6932 48.0611C58.5568 48.3054 58.4886 48.5881 58.4886 48.9091V53H57.483ZM68.049 53V44.2727H69.0547V47.4943H69.1399C69.2138 47.3807 69.3161 47.2358 69.4467 47.0597C69.5803 46.8807 69.7706 46.7216 70.0178 46.5824C70.2678 46.4403 70.6058 46.3693 71.032 46.3693C71.5831 46.3693 72.0689 46.5071 72.4893 46.7827C72.9098 47.0582 73.2379 47.4489 73.4737 47.9545C73.7095 48.4602 73.8274 49.0568 73.8274 49.7443C73.8274 50.4375 73.7095 51.0384 73.4737 51.5469C73.2379 52.0526 72.9112 52.4446 72.4936 52.723C72.076 52.9986 71.5945 53.1364 71.049 53.1364C70.6286 53.1364 70.2919 53.0668 70.0391 52.9276C69.7862 52.7855 69.5916 52.625 69.4553 52.446C69.3189 52.2642 69.2138 52.1136 69.1399 51.9943H69.0206V53H68.049ZM69.0376 49.7273C69.0376 50.2216 69.1101 50.6577 69.255 51.0355C69.3999 51.4105 69.6115 51.7045 69.8899 51.9176C70.1683 52.1278 70.5092 52.233 70.9126 52.233C71.3331 52.233 71.6839 52.1222 71.9652 51.9006C72.2493 51.6761 72.4624 51.375 72.6044 50.9972C72.7493 50.6165 72.8217 50.1932 72.8217 49.7273C72.8217 49.267 72.7507 48.8523 72.6087 48.483C72.4695 48.1108 72.2578 47.8168 71.9737 47.6009C71.6925 47.3821 71.3388 47.2727 70.9126 47.2727C70.5036 47.2727 70.1598 47.3764 69.8814 47.5838C69.603 47.7884 69.3928 48.0753 69.2507 48.4446C69.1087 48.8111 69.0376 49.2386 69.0376 49.7273ZM75.3658 53V46.4545H76.3374V47.4432H76.4055C76.5249 47.1193 76.7408 46.8565 77.0533 46.6548C77.3658 46.4531 77.718 46.3523 78.1101 46.3523C78.1839 46.3523 78.2763 46.3537 78.3871 46.3565C78.4979 46.3594 78.5817 46.3636 78.6385 46.3693V47.392C78.6044 47.3835 78.5263 47.3707 78.4041 47.3537C78.2848 47.3338 78.1584 47.3239 78.0249 47.3239C77.7067 47.3239 77.4226 47.3906 77.1726 47.5241C76.9254 47.6548 76.7294 47.8366 76.5845 48.0696C76.4425 48.2997 76.3714 48.5625 76.3714 48.858V53H75.3658ZM81.7567 53.1534C81.342 53.1534 80.9656 53.0753 80.6275 52.919C80.2894 52.7599 80.021 52.5312 79.8221 52.233C79.6232 51.9318 79.5238 51.5682 79.5238 51.142C79.5238 50.767 79.5977 50.4631 79.7454 50.2301C79.8931 49.9943 80.0906 49.8097 80.3377 49.6761C80.5849 49.5426 80.8576 49.4432 81.1559 49.3778C81.457 49.3097 81.7596 49.2557 82.0636 49.2159C82.4613 49.1648 82.7837 49.1264 83.0309 49.1009C83.2809 49.0724 83.4627 49.0256 83.5763 48.9602C83.6928 48.8949 83.7511 48.7812 83.7511 48.6193V48.5852C83.7511 48.1648 83.636 47.8381 83.4059 47.6051C83.1786 47.3722 82.8335 47.2557 82.3704 47.2557C81.8903 47.2557 81.5138 47.3608 81.2411 47.571C80.9684 47.7812 80.7766 48.0057 80.6658 48.2443L79.7113 47.9034C79.8817 47.5057 80.109 47.196 80.3931 46.9744C80.68 46.75 80.9925 46.5937 81.3306 46.5057C81.6715 46.4148 82.0067 46.3693 82.3363 46.3693C82.5465 46.3693 82.788 46.3949 83.0607 46.446C83.3363 46.4943 83.6019 46.5952 83.8576 46.7486C84.1161 46.902 84.3306 47.1335 84.5011 47.4432C84.6715 47.7528 84.7567 48.1676 84.7567 48.6875V53H83.7511V52.1136H83.6999C83.6317 52.2557 83.5181 52.4077 83.359 52.5696C83.1999 52.7315 82.9883 52.8693 82.7241 52.983C82.4599 53.0966 82.1374 53.1534 81.7567 53.1534ZM81.9102 52.25C82.3079 52.25 82.6431 52.1719 82.9158 52.0156C83.1914 51.8594 83.3988 51.6577 83.538 51.4105C83.68 51.1634 83.7511 50.9034 83.7511 50.6307V49.7102C83.7085 49.7614 83.6147 49.8082 83.4698 49.8509C83.3278 49.8906 83.163 49.9261 82.9755 49.9574C82.7908 49.9858 82.6104 50.0114 82.4343 50.0341C82.261 50.054 82.1204 50.071 82.0124 50.0852C81.7511 50.1193 81.5067 50.1747 81.2795 50.2514C81.055 50.3253 80.8732 50.4375 80.734 50.5881C80.5977 50.7358 80.5295 50.9375 80.5295 51.1932C80.5295 51.5426 80.6587 51.8068 80.9173 51.9858C81.1786 52.1619 81.5096 52.25 81.9102 52.25ZM89.2514 53.1364C88.6378 53.1364 88.1094 52.9915 87.6662 52.7017C87.223 52.4119 86.8821 52.0128 86.6435 51.5043C86.4048 50.9957 86.2855 50.4148 86.2855 49.7614C86.2855 49.0966 86.4077 48.5099 86.652 48.0014C86.8991 47.4901 87.2429 47.0909 87.6832 46.804C88.1264 46.5142 88.6435 46.3693 89.2344 46.3693C89.6946 46.3693 90.1094 46.4545 90.4787 46.625C90.848 46.7955 91.1506 47.0341 91.3864 47.3409C91.6222 47.6477 91.7685 48.0057 91.8253 48.4148H90.8196C90.7429 48.1165 90.5724 47.8523 90.3082 47.6222C90.0469 47.3892 89.6946 47.2727 89.2514 47.2727C88.8594 47.2727 88.5156 47.375 88.2202 47.5795C87.9276 47.7812 87.6989 48.0668 87.5341 48.4361C87.3722 48.8026 87.2912 49.233 87.2912 49.7273C87.2912 50.233 87.3707 50.6733 87.5298 51.0483C87.6918 51.4233 87.919 51.7145 88.2116 51.9219C88.5071 52.1293 88.8537 52.233 89.2514 52.233C89.5128 52.233 89.75 52.1875 89.9631 52.0966C90.1761 52.0057 90.3565 51.875 90.5043 51.7045C90.652 51.5341 90.7571 51.3295 90.8196 51.0909H91.8253C91.7685 51.4773 91.6278 51.8253 91.4034 52.1349C91.1818 52.4418 90.8878 52.6861 90.5213 52.8679C90.1577 53.0469 89.7344 53.1364 89.2514 53.1364ZM96.0398 53.1364C95.4091 53.1364 94.8651 52.9972 94.4077 52.7188C93.9531 52.4375 93.6023 52.0455 93.3551 51.5426C93.1108 51.0369 92.9886 50.4489 92.9886 49.7784C92.9886 49.108 93.1108 48.517 93.3551 48.0057C93.6023 47.4915 93.946 47.0909 94.3864 46.804C94.8295 46.5142 95.3466 46.3693 95.9375 46.3693C96.2784 46.3693 96.6151 46.4261 96.9474 46.5398C97.2798 46.6534 97.5824 46.8381 97.8551 47.0938C98.1278 47.3466 98.3452 47.6818 98.5071 48.0994C98.669 48.517 98.75 49.0312 98.75 49.642V50.0682H93.7045V49.1989H97.7273C97.7273 48.8295 97.6534 48.5 97.5057 48.2102C97.3608 47.9205 97.1534 47.6918 96.8835 47.5241C96.6165 47.3565 96.3011 47.2727 95.9375 47.2727C95.5369 47.2727 95.1903 47.3722 94.8977 47.571C94.608 47.767 94.3849 48.0227 94.2287 48.3381C94.0724 48.6534 93.9943 48.9915 93.9943 49.3523V49.9318C93.9943 50.4261 94.0795 50.8452 94.25 51.1889C94.4233 51.5298 94.6634 51.7898 94.9702 51.9688C95.277 52.1449 95.6335 52.233 96.0398 52.233C96.304 52.233 96.5426 52.196 96.7557 52.1222C96.9716 52.0455 97.1577 51.9318 97.3139 51.7812C97.4702 51.6278 97.5909 51.4375 97.6761 51.2102L98.6477 51.483C98.5455 51.8125 98.3736 52.1023 98.1321 52.3523C97.8906 52.5994 97.5923 52.7926 97.2372 52.9318C96.8821 53.0682 96.483 53.1364 96.0398 53.1364ZM103.791 53V44.2727H109.058V45.2102H104.848V48.1591H108.786V49.0966H104.848V52.0625H109.126V53H103.791ZM116.179 46.4545L113.759 53H112.736L110.315 46.4545H111.406L113.213 51.6705H113.281L115.088 46.4545H116.179ZM120.016 53.1364C119.386 53.1364 118.842 52.9972 118.384 52.7188C117.93 52.4375 117.579 52.0455 117.332 51.5426C117.087 51.0369 116.965 50.4489 116.965 49.7784C116.965 49.108 117.087 48.517 117.332 48.0057C117.579 47.4915 117.923 47.0909 118.363 46.804C118.806 46.5142 119.323 46.3693 119.914 46.3693C120.255 46.3693 120.592 46.4261 120.924 46.5398C121.256 46.6534 121.559 46.8381 121.832 47.0938C122.104 47.3466 122.322 47.6818 122.484 48.0994C122.646 48.517 122.727 49.0312 122.727 49.642V50.0682H117.681V49.1989H121.704C121.704 48.8295 121.63 48.5 121.482 48.2102C121.337 47.9205 121.13 47.6918 120.86 47.5241C120.593 47.3565 120.278 47.2727 119.914 47.2727C119.513 47.2727 119.167 47.3722 118.874 47.571C118.585 47.767 118.362 48.0227 118.205 48.3381C118.049 48.6534 117.971 48.9915 117.971 49.3523V49.9318C117.971 50.4261 118.056 50.8452 118.227 51.1889C118.4 51.5298 118.64 51.7898 118.947 51.9688C119.254 52.1449 119.61 52.233 120.016 52.233C120.281 52.233 120.519 52.196 120.732 52.1222C120.948 52.0455 121.134 51.9318 121.29 51.7812C121.447 51.6278 121.567 51.4375 121.653 51.2102L122.624 51.483C122.522 51.8125 122.35 52.1023 122.109 52.3523C121.867 52.5994 121.569 52.7926 121.214 52.9318C120.859 53.0682 120.46 53.1364 120.016 53.1364ZM124.256 53V46.4545H125.228V47.4432H125.296C125.415 47.1193 125.631 46.8565 125.944 46.6548C126.256 46.4531 126.609 46.3523 127.001 46.3523C127.075 46.3523 127.167 46.3537 127.278 46.3565C127.388 46.3594 127.472 46.3636 127.529 46.3693V47.392C127.495 47.3835 127.417 47.3707 127.295 47.3537C127.175 47.3338 127.049 47.3239 126.915 47.3239C126.597 47.3239 126.313 47.3906 126.063 47.5241C125.816 47.6548 125.62 47.8366 125.475 48.0696C125.333 48.2997 125.262 48.5625 125.262 48.858V53H124.256ZM129.568 55.4545C129.398 55.4545 129.246 55.4403 129.112 55.4119C128.979 55.3864 128.886 55.3608 128.835 55.3352L129.091 54.4489C129.335 54.5114 129.551 54.5341 129.739 54.517C129.926 54.5 130.092 54.4162 130.237 54.2656C130.385 54.1179 130.52 53.8778 130.642 53.5455L130.83 53.0341L128.409 46.4545H129.5L131.307 51.6705H131.375L133.182 46.4545H134.273L131.494 53.9545C131.369 54.2926 131.214 54.5724 131.03 54.794C130.845 55.0185 130.631 55.1847 130.386 55.2926C130.145 55.4006 129.872 55.4545 129.568 55.4545ZM138.025 53.1364C137.434 53.1364 136.915 52.9957 136.469 52.7145C136.026 52.4332 135.68 52.0398 135.43 51.5341C135.183 51.0284 135.059 50.4375 135.059 49.7614C135.059 49.0795 135.183 48.4844 135.43 47.9759C135.68 47.4673 136.026 47.0724 136.469 46.7912C136.915 46.5099 137.434 46.3693 138.025 46.3693C138.616 46.3693 139.133 46.5099 139.576 46.7912C140.022 47.0724 140.369 47.4673 140.616 47.9759C140.866 48.4844 140.991 49.0795 140.991 49.7614C140.991 50.4375 140.866 51.0284 140.616 51.5341C140.369 52.0398 140.022 52.4332 139.576 52.7145C139.133 52.9957 138.616 53.1364 138.025 53.1364ZM138.025 52.233C138.474 52.233 138.843 52.1179 139.133 51.8878C139.423 51.6577 139.637 51.3551 139.776 50.9801C139.915 50.6051 139.985 50.1989 139.985 49.7614C139.985 49.3239 139.915 48.9162 139.776 48.5384C139.637 48.1605 139.423 47.8551 139.133 47.6222C138.843 47.3892 138.474 47.2727 138.025 47.2727C137.576 47.2727 137.207 47.3892 136.917 47.6222C136.627 47.8551 136.413 48.1605 136.273 48.5384C136.134 48.9162 136.065 49.3239 136.065 49.7614C136.065 50.1989 136.134 50.6051 136.273 50.9801C136.413 51.3551 136.627 51.6577 136.917 51.8878C137.207 52.1179 137.576 52.233 138.025 52.233ZM143.532 49.0625V53H142.526V46.4545H143.498V47.4773H143.583C143.736 47.1449 143.969 46.8778 144.282 46.6761C144.594 46.4716 144.998 46.3693 145.492 46.3693C145.935 46.3693 146.323 46.4602 146.655 46.642C146.988 46.821 147.246 47.0938 147.431 47.4602C147.615 47.8239 147.708 48.2841 147.708 48.8409V53H146.702V48.9091C146.702 48.3949 146.569 47.9943 146.301 47.7074C146.034 47.4176 145.668 47.2727 145.202 47.2727C144.881 47.2727 144.594 47.3423 144.341 47.4815C144.091 47.6207 143.894 47.8239 143.749 48.0909C143.604 48.358 143.532 48.6818 143.532 49.0625ZM152.29 53.1364C151.659 53.1364 151.115 52.9972 150.658 52.7188C150.203 52.4375 149.852 52.0455 149.605 51.5426C149.361 51.0369 149.239 50.4489 149.239 49.7784C149.239 49.108 149.361 48.517 149.605 48.0057C149.852 47.4915 150.196 47.0909 150.636 46.804C151.08 46.5142 151.597 46.3693 152.188 46.3693C152.528 46.3693 152.865 46.4261 153.197 46.5398C153.53 46.6534 153.832 46.8381 154.105 47.0938C154.378 47.3466 154.595 47.6818 154.757 48.0994C154.919 48.517 155 49.0312 155 49.642V50.0682H149.955V49.1989H153.977C153.977 48.8295 153.903 48.5 153.756 48.2102C153.611 47.9205 153.403 47.6918 153.134 47.5241C152.866 47.3565 152.551 47.2727 152.188 47.2727C151.787 47.2727 151.44 47.3722 151.148 47.571C150.858 47.767 150.635 48.0227 150.479 48.3381C150.322 48.6534 150.244 48.9915 150.244 49.3523V49.9318C150.244 50.4261 150.33 50.8452 150.5 51.1889C150.673 51.5298 150.913 51.7898 151.22 51.9688C151.527 52.1449 151.884 52.233 152.29 52.233C152.554 52.233 152.793 52.196 153.006 52.1222C153.222 52.0455 153.408 51.9318 153.564 51.7812C153.72 51.6278 153.841 51.4375 153.926 51.2102L154.898 51.483C154.795 51.8125 154.624 52.1023 154.382 52.3523C154.141 52.5994 153.842 52.7926 153.487 52.9318C153.132 53.0682 152.733 53.1364 152.29 53.1364Z" fill="#121212"/>
<defs>
<filter id="filter0_d_2_704" x="20.0154" y="24.9611" width="17.3887" height="22.2752" filterUnits="userSpaceOnUse" color-interpolation-filters="sRGB">
<feFlood flood-opacity="0" result="BackgroundImageFix"/>
<feColorMatrix in="SourceAlpha" type="matrix" values="0 0 0 0 0 0 0 0 0 0 0 0 0 0 0 0 0 0 127 0" result="hardAlpha"/>
<feOffset dy="5.45761"/>
<feGaussianBlur stdDeviation="2.72881"/>
<feComposite in2="hardAlpha" operator="out"/>
<feColorMatrix type="matrix" values="0 0 0 0 0 0 0 0 0 0 0 0 0 0 0 0 0 0 0.25 0"/>
<feBlend mode="normal" in2="BackgroundImageFix" result="effect1_dropShadow_2_704"/>
<feBlend mode="normal" in="SourceGraphic" in2="effect1_dropShadow_2_704" result="shape"/>
</filter>
</defs>
</svg>
