<svg width="42" height="42" viewBox="0 0 42 42" fill="none" xmlns="http://www.w3.org/2000/svg">
<circle cx="21" cy="21" r="21" fill="#DFF0FF"/>
<path d="M31 17.98V27C31 28.1 30.1 29 29 29H13C11.9 29 11 28.1 11 27V15C11 13.9 11.9 13 13 13H23.1C23.04 13.32 23 13.66 23 14C23 15.48 23.65 16.79 24.67 17.71L21 20L13 15V17L21 22L26.3 18.68C26.84 18.88 27.4 19 28 19C29.13 19 30.16 18.61 31 17.98ZM25 14C25 15.66 26.34 17 28 17C29.66 17 31 15.66 31 14C31 12.34 29.66 11 28 11C26.34 11 25 12.34 25 14Z" fill="#197DDA"/>
</svg>
