<svg width="64" height="64" viewBox="0 0 64 64" fill="none" xmlns="http://www.w3.org/2000/svg">
<path d="M0 6C0 2.68629 2.68629 0 6 0H58C61.3137 0 64 2.68629 64 6V58C64 61.3137 61.3137 64 58 64H6C2.68629 64 0 61.3137 0 58V6Z" fill="#420789"/>
<path d="M41 38V39C41 39.5304 40.7893 40.0391 40.4142 40.4142C40.0391 40.7893 39.5304 41 39 41H25C23.89 41 23 40.1 23 39V25C23 24.4696 23.2107 23.9609 23.5858 23.5858C23.9609 23.2107 24.4696 23 25 23H39C39.5304 23 40.0391 23.2107 40.4142 23.5858C40.7893 23.9609 41 24.4696 41 25V26H32C30.89 26 30 26.9 30 28V36C30 36.5304 30.2107 37.0391 30.5858 37.4142C30.9609 37.7893 31.4696 38 32 38H41ZM32 36H42V28H32V36ZM36 33.5C35.6022 33.5 35.2206 33.342 34.9393 33.0607C34.658 32.7794 34.5 32.3978 34.5 32C34.5 31.6022 34.658 31.2206 34.9393 30.9393C35.2206 30.658 35.6022 30.5 36 30.5C36.3978 30.5 36.7794 30.658 37.0607 30.9393C37.342 31.2206 37.5 31.6022 37.5 32C37.5 32.3978 37.342 32.7794 37.0607 33.0607C36.7794 33.342 36.3978 33.5 36 33.5Z" fill="white"/>
</svg>
