<svg width="28" height="28" viewBox="0 0 28 28" fill="none" xmlns="http://www.w3.org/2000/svg">
<path d="M6.99984 2.33398C5.7165 2.33398 4.67817 3.38398 4.67817 4.66732L4.6665 23.334C4.6665 24.6173 5.70484 25.6673 6.98817 25.6673H20.9998C22.2832 25.6673 23.3332 24.6173 23.3332 23.334V9.33398L16.3332 2.33398H6.99984ZM15.1665 10.5007V4.08398L21.5832 10.5007H15.1665Z" fill="#C21F15"/>
<path d="M8.70579 21V16.6364H10.3422C10.6774 16.6364 10.9586 16.6989 11.1859 16.8239C11.4146 16.9489 11.5872 17.1207 11.7037 17.3395C11.8216 17.5568 11.8805 17.804 11.8805 18.081C11.8805 18.3608 11.8216 18.6094 11.7037 18.8267C11.5858 19.044 11.4118 19.2152 11.1816 19.3402C10.9515 19.4638 10.6681 19.5256 10.3315 19.5256H9.24698V18.8757H10.225C10.421 18.8757 10.5815 18.8416 10.7065 18.7734C10.8315 18.7053 10.9238 18.6115 10.9835 18.4922C11.0446 18.3729 11.0751 18.2358 11.0751 18.081C11.0751 17.9261 11.0446 17.7898 10.9835 17.6719C10.9238 17.554 10.8308 17.4624 10.7044 17.397C10.5794 17.3303 10.4181 17.2969 10.2207 17.2969H9.49627V21H8.70579ZM14.0458 21H12.5671V16.6364H14.0756C14.5089 16.6364 14.881 16.7237 15.1921 16.8984C15.5046 17.0717 15.7447 17.321 15.9123 17.6463C16.0799 17.9716 16.1637 18.3608 16.1637 18.8139C16.1637 19.2685 16.0792 19.6591 15.9102 19.9858C15.7425 20.3125 15.5004 20.5632 15.1836 20.7379C14.8683 20.9126 14.489 21 14.0458 21ZM13.3576 20.3161H14.0075C14.3114 20.3161 14.565 20.2607 14.7681 20.1499C14.9712 20.0376 15.1239 19.8707 15.2262 19.6491C15.3285 19.4261 15.3796 19.1477 15.3796 18.8139C15.3796 18.4801 15.3285 18.2031 15.2262 17.983C15.1239 17.7614 14.9727 17.5959 14.7724 17.4865C14.5735 17.3757 14.3263 17.3203 14.0309 17.3203H13.3576V20.3161ZM16.9148 21V16.6364H19.7102V17.299H17.7053V18.4837H19.5185V19.1463H17.7053V21H16.9148Z" fill="white"/>
</svg>
