<svg width="24" height="24" viewBox="0 0 24 24" fill="none" xmlns="http://www.w3.org/2000/svg">
<path d="M13.7499 10.19L14.3799 10.32L18.5499 12.4C19.2499 12.63 19.7099 13.32 19.6499 14.06V14.19V14.32L18.7499 20.44C18.6899 20.87 18.4999 21.27 18.1499 21.55C17.8399 21.85 17.4299 22 16.9999 22H10.1199C9.62986 22 9.17986 21.82 8.84986 21.47L2.85986 15.5L3.75986 14.5C3.99986 14.25 4.37986 14.11 4.73986 14.13H5.02986L8.99986 15V4.5C8.99986 3.96957 9.21058 3.46086 9.58565 3.08579C9.96072 2.71071 10.4694 2.5 10.9999 2.5C11.5303 2.5 12.039 2.71071 12.4141 3.08579C12.7891 3.46086 12.9999 3.96957 12.9999 4.5V10.19H13.7499Z" fill="#121212" fill-opacity="0.8"/>
</svg>
