<svg width="50" height="50" viewBox="0 0 50 50" fill="none" xmlns="http://www.w3.org/2000/svg">
<path d="M0 5.46875C0 3.95833 0.533859 2.66927 1.60157 1.60156C2.66927 0.533854 3.95833 0 5.46875 0L19.5312 0C21.0417 0 22.3307 0.533854 23.3984 1.60156C24.4661 2.66927 25 3.95833 25 5.46875C25 6.97917 24.4661 8.26823 23.3984 9.33594C22.3307 10.4036 21.0417 10.9375 19.5312 10.9375L5.46875 10.9375C3.95833 10.9375 2.66927 10.4036 1.60157 9.33594C0.533859 8.26823 0 6.97917 0 5.46875ZM0 25C0 23.4896 0.533859 22.2005 1.60157 21.1328C2.66927 20.0651 3.95833 19.5312 5.46875 19.5312L44.5312 19.5312C46.0417 19.5312 47.3307 20.0651 48.3984 21.1328C49.4661 22.2005 50 23.4896 50 25C50 26.5104 49.4661 27.7995 48.3984 28.8672C47.3307 29.9349 46.0417 30.4688 44.5312 30.4688L5.46875 30.4687C3.95833 30.4687 2.66927 29.9349 1.60157 28.8672C0.533859 27.7995 0 26.5104 0 25ZM0 44.5312C0 43.0208 0.533859 41.7318 1.60157 40.6641C2.66927 39.5964 3.95833 39.0625 5.46875 39.0625H28.9062C30.4167 39.0625 31.7057 39.5964 32.7734 40.6641C33.8411 41.7318 34.375 43.0208 34.375 44.5312C34.375 46.0417 33.8411 47.3307 32.7734 48.3984C31.7057 49.4661 30.4167 50 28.9062 50H5.46875C3.95833 50 2.66927 49.4661 1.60157 48.3984C0.533859 47.3307 0 46.0417 0 44.5312Z" fill="#001A72" fill-opacity="0.8"/>
</svg>
