<svg width="60" height="50" viewBox="0 0 60 50" fill="none" xmlns="http://www.w3.org/2000/svg">
<path d="M29.7111 49.5186V43.6589L47.5378 25.8322L53.3975 31.6919L35.5708 49.5186H29.7111ZM0 32.1871V27.2352H24.7593V32.1871H0ZM56.9464 28.1431L51.0867 22.2834L53.4801 19.89C53.9202 19.4498 54.4979 19.2297 55.2132 19.2297C55.9285 19.2297 56.5062 19.4498 56.9464 19.89L59.3398 22.2834C59.7799 22.7235 60 23.3012 60 24.0165C60 24.7318 59.7799 25.3095 59.3398 25.7497L56.9464 28.1431ZM0 18.5695V13.6176H38.7896V18.5695H0ZM0 4.95186V0H38.7896V4.95186H0Z" fill="#001A72" fill-opacity="0.8"/>
</svg>
