<svg width="19" height="18" viewBox="0 0 19 18" fill="none" xmlns="http://www.w3.org/2000/svg">
<path d="M14.5461 18C14.3226 18 14.1001 17.9314 13.9086 17.7947L9.40712 14.5664L4.9056 17.7947C4.52213 18.0692 4.00751 18.0692 3.62625 17.7903C3.24499 17.5142 3.08452 17.0239 3.22728 16.5762L4.90616 11.1578L0.445029 8.0142C0.065983 7.73476 -0.0917224 7.24338 0.0532559 6.79517C0.199341 6.34806 0.615462 6.04427 1.08581 6.04095L6.61103 6.03265L8.37014 0.748686C8.51844 0.301024 8.93622 0 9.40712 0C9.87803 0 10.2958 0.301577 10.4447 0.748686L12.1739 6.03265L17.7273 6.04095C18.1993 6.04427 18.616 6.34861 18.7604 6.79517C18.906 7.24338 18.7483 7.73476 18.3687 8.0142L13.9075 11.1578L15.5864 16.5762C15.7303 17.0239 15.5681 17.5142 15.188 17.7903C14.996 17.9308 14.7713 18 14.5461 18Z" fill="#FFAC33"/>
</svg>
