<svg width="24" height="24" viewBox="0 0 24 24" fill="none" xmlns="http://www.w3.org/2000/svg">
<path d="M9.99961 9C9.99961 8.73478 10.105 8.48043 10.2925 8.29289C10.48 8.10536 10.7344 8 10.9996 8C11.2648 8 11.5192 8.10536 11.7067 8.29289C11.8943 8.48043 11.9996 8.73478 11.9996 9V13.47L13.2096 13.6L18.1496 15.79C18.6796 16.03 18.9996 16.56 18.9996 17.14V21.5C18.9696 22.32 18.3196 22.97 17.4996 23H10.9996C10.6196 23 10.2596 22.85 9.99961 22.57L5.09961 18.37L5.83961 17.6C6.02961 17.39 6.29961 17.28 6.57961 17.28H6.79961L9.99961 19V9ZM10.9996 5C12.0605 5 13.0779 5.42143 13.828 6.17157C14.5782 6.92172 14.9996 7.93913 14.9996 9C14.9996 10.5 14.1996 11.77 12.9996 12.46V11.24C13.6096 10.69 13.9996 9.89 13.9996 9C13.9996 8.20435 13.6835 7.44129 13.1209 6.87868C12.5583 6.31607 11.7953 6 10.9996 6C10.204 6 9.4409 6.31607 8.87829 6.87868C8.31568 7.44129 7.99961 8.20435 7.99961 9C7.99961 9.89 8.38961 10.69 8.99961 11.24V12.46C7.79961 11.77 6.99961 10.5 6.99961 9C6.99961 7.93913 7.42104 6.92172 8.17118 6.17157C8.92133 5.42143 9.93874 5 10.9996 5Z" fill="#121212" fill-opacity="0.8"/>
</svg>
