<svg width="24" height="24" viewBox="0 0 24 24" fill="none" xmlns="http://www.w3.org/2000/svg">
<path d="M9.9 7C9.9 6.73478 10.0054 6.48043 10.1929 6.29289C10.3804 6.10536 10.6348 6 10.9 6C11.1652 6 11.4196 6.10536 11.6071 6.29289C11.7946 6.48043 11.9 6.73478 11.9 7V11.47L13.11 11.6L18.05 13.79C18.58 14.03 18.9 14.56 18.9 15.14V19.5C18.87 20.32 18.22 20.97 17.4 21H10.9C10.52 21 10.16 20.85 9.9 20.57L5 16.37L5.74 15.6C5.93 15.39 6.2 15.28 6.48 15.28H6.7L9.9 17V7ZM8.9 10.44V7C8.9 6.46957 9.11071 5.96086 9.48579 5.58579C9.86086 5.21071 10.3696 5 10.9 5C11.4304 5 11.9391 5.21071 12.3142 5.58579C12.6893 5.96086 12.9 6.46957 12.9 7V10.44C14.09 9.75 14.9 8.47 14.9 7C14.9 5.93913 14.4786 4.92172 13.7284 4.17157C12.9783 3.42143 11.9609 3 10.9 3C9.83913 3 8.82172 3.42143 8.07157 4.17157C7.32143 4.92172 6.9 5.93913 6.9 7C6.9 8.47 7.71 9.75 8.9 10.44Z" fill="white"/>
</svg>
