<svg width="64" height="64" viewBox="0 0 64 64" fill="none" xmlns="http://www.w3.org/2000/svg">
<rect width="64" height="64" rx="6" fill="#420789"/>
<path d="M29.82 32.5C29.84 32.33 29.86 32.17 29.86 32C29.86 31.83 29.84 31.67 29.82 31.5L30.9 30.69C31 30.62 31 30.5 30.96 30.37L29.93 28.64C29.87 28.53 29.73 28.5 29.62 28.53L28.34 29.03C28.07 28.83 27.78 28.67 27.47 28.54L27.27 27.21C27.27 27.09 27.16 27 27.03 27H25C24.85 27 24.74 27.09 24.72 27.21L24.5 28.53C24.21 28.65 23.92 28.83 23.65 29L22.37 28.5C22.25 28.47 22.12 28.5 22.06 28.63L21.03 30.36C20.97 30.5 21 30.61 21.1 30.69L22.18 31.5C22.16 31.67 22.15 31.84 22.15 32C22.15 32.17 22.17 32.33 22.19 32.5L21.1 33.32C21 33.39 21 33.53 21.04 33.64L22.07 35.37C22.13 35.5 22.27 35.5 22.38 35.5L23.66 35C23.93 35.18 24.22 35.34 24.53 35.47L24.73 36.79C24.74 36.91 24.85 37 25 37H27.04C27.17 37 27.28 36.91 27.29 36.79L27.5 35.47C27.8 35.35 28.09 35.17 28.36 35L29.64 35.5C29.76 35.53 29.89 35.5 29.95 35.37L31 33.64C31.04 33.53 31 33.4 30.92 33.32L29.82 32.5ZM26 33.75C25 33.75 24.2 32.97 24.2 32C24.2 31.03 25 30.25 26 30.25C27 30.25 27.8 31.03 27.8 32C27.8 32.97 27 33.75 26 33.75ZM37 21H27C26.4696 21 25.9609 21.2107 25.5858 21.5858C25.2107 21.9609 25 22.4696 25 23V26H27V24H37V40H27V38H25V41C25 41.5304 25.2107 42.0391 25.5858 42.4142C25.9609 42.7893 26.4696 43 27 43H37C37.5304 43 38.0391 42.7893 38.4142 42.4142C38.7893 42.0391 39 41.5304 39 41V23C39 22.4696 38.7893 21.9609 38.4142 21.5858C38.0391 21.2107 37.5304 21 37 21Z" fill="white"/>
</svg>
