<svg width="50" height="48" viewBox="0 0 50 48" fill="none" xmlns="http://www.w3.org/2000/svg">
<path d="M20.3125 30H38.125C38.6667 30 39.1146 29.8229 39.4688 29.4688C39.8229 29.1146 40 28.6667 40 28.125C40 27.5833 39.8229 27.1354 39.4688 26.7812C39.1146 26.4271 38.6667 26.25 38.125 26.25H24.0625L20.3125 30ZM10.9375 30H14.1875C14.4375 30 14.6667 29.9479 14.875 29.8438C15.0833 29.7396 15.2917 29.6042 15.5 29.4375L30.6875 14.4375C30.9375 14.1875 31.0625 13.875 31.0625 13.5C31.0625 13.125 30.9375 12.8125 30.6875 12.5625L27.25 9.4375C27.0417 9.22917 26.7812 9.125 26.4687 9.125C26.1562 9.125 25.8958 9.22917 25.6875 9.4375L10.5625 24.8125C10.3958 25.0208 10.2604 25.2292 10.1562 25.4375C10.0521 25.6458 10 25.875 10 26.125V29.0625C10 29.3125 10.0938 29.5313 10.2813 29.7188C10.4688 29.9063 10.6875 30 10.9375 30ZM0 45.5V3.75C0 2.79167 0.375 1.92708 1.125 1.15625C1.875 0.385417 2.75 0 3.75 0H46.25C47.2083 0 48.0729 0.385417 48.8438 1.15625C49.6146 1.92708 50 2.79167 50 3.75V36.25C50 37.2083 49.6146 38.0729 48.8438 38.8438C48.0729 39.6146 47.2083 40 46.25 40H10L3.1875 46.8125C2.60417 47.3958 1.92708 47.5313 1.15625 47.2188C0.385417 46.9063 0 46.3333 0 45.5Z" fill="black" fill-opacity="0.6"/>
</svg>
