<svg width="64" height="64" viewBox="0 0 64 64" fill="none" xmlns="http://www.w3.org/2000/svg">
<rect opacity="0.75" width="64" height="64" rx="6" fill="#F5F0F7"/>
<path d="M36 29C42 29 42 33 42 33V35H36V33C36 33 36 31.31 34.85 29.8C34.68 29.57 34.47 29.35 34.25 29.14C34.77 29.06 35.34 29 36 29ZM22 33C22 33 22 29 28 29C34 29 34 33 34 33V35H22V33ZM29 37V39H35V37L38 40L35 43V41H29V43L26 40L29 37ZM28 21C26.34 21 25 22.34 25 24C25 25.66 26.34 27 28 27C29.66 27 31 25.66 31 24C31 22.34 29.66 21 28 21ZM36 21C34.34 21 33 22.34 33 24C33 25.66 34.34 27 36 27C37.66 27 39 25.66 39 24C39 22.34 37.66 21 36 21Z" fill="#121212" fill-opacity="0.7"/>
</svg>
