<svg width="24" height="24" viewBox="0 0 24 24" fill="none" xmlns="http://www.w3.org/2000/svg">
<path d="M3.6 10.8C4.92375 10.8 6 9.72373 6 8.39998C6 7.07623 4.92375 5.99998 3.6 5.99998C2.27625 5.99998 1.2 7.07623 1.2 8.39998C1.2 9.72373 2.27625 10.8 3.6 10.8ZM20.4 10.8C21.7238 10.8 22.8 9.72373 22.8 8.39998C22.8 7.07623 21.7238 5.99998 20.4 5.99998C19.0763 5.99998 18 7.07623 18 8.39998C18 9.72373 19.0763 10.8 20.4 10.8ZM21.6 12H19.2C18.54 12 17.9438 12.2662 17.5088 12.6975C19.02 13.5262 20.0925 15.0225 20.325 16.8H22.8C23.4638 16.8 24 16.2637 24 15.6V14.4C24 13.0762 22.9238 12 21.6 12ZM12 12C14.3213 12 16.2 10.1212 16.2 7.79998C16.2 5.47873 14.3213 3.59998 12 3.59998C9.67875 3.59998 7.8 5.47873 7.8 7.79998C7.8 10.1212 9.67875 12 12 12ZM14.88 13.2H14.5688C13.7888 13.575 12.9225 13.8 12 13.8C11.0775 13.8 10.215 13.575 9.43125 13.2H9.12C6.735 13.2 4.8 15.135 4.8 17.52V18.6C4.8 19.5937 5.60625 20.4 6.6 20.4H17.4C18.3938 20.4 19.2 19.5937 19.2 18.6V17.52C19.2 15.135 17.265 13.2 14.88 13.2ZM6.49125 12.6975C6.05625 12.2662 5.46 12 4.8 12H2.4C1.07625 12 0 13.0762 0 14.4V15.6C0 16.2637 0.53625 16.8 1.2 16.8H3.67125C3.9075 15.0225 4.98 13.5262 6.49125 12.6975Z" fill="white"/>
</svg>
