<svg width="64" height="64" viewBox="0 0 64 64" fill="none" xmlns="http://www.w3.org/2000/svg">
<rect width="64" height="64" rx="6" fill="#420789"/>
<path d="M23.6 30.8C24.9238 30.8 26 29.7237 26 28.4C26 27.0762 24.9238 26 23.6 26C22.2763 26 21.2 27.0762 21.2 28.4C21.2 29.7237 22.2763 30.8 23.6 30.8ZM40.4 30.8C41.7238 30.8 42.8 29.7237 42.8 28.4C42.8 27.0762 41.7238 26 40.4 26C39.0763 26 38 27.0762 38 28.4C38 29.7237 39.0763 30.8 40.4 30.8ZM41.6 32H39.2C38.54 32 37.9438 32.2662 37.5088 32.6975C39.02 33.5262 40.0925 35.0225 40.325 36.8H42.8C43.4638 36.8 44 36.2637 44 35.6V34.4C44 33.0762 42.9238 32 41.6 32ZM32 32C34.3213 32 36.2 30.1212 36.2 27.8C36.2 25.4787 34.3213 23.6 32 23.6C29.6788 23.6 27.8 25.4787 27.8 27.8C27.8 30.1212 29.6788 32 32 32ZM34.88 33.2H34.5688C33.7888 33.575 32.9225 33.8 32 33.8C31.0775 33.8 30.215 33.575 29.4313 33.2H29.12C26.735 33.2 24.8 35.135 24.8 37.52V38.6C24.8 39.5937 25.6063 40.4 26.6 40.4H37.4C38.3938 40.4 39.2 39.5937 39.2 38.6V37.52C39.2 35.135 37.265 33.2 34.88 33.2ZM26.4913 32.6975C26.0563 32.2662 25.46 32 24.8 32H22.4C21.0763 32 20 33.0762 20 34.4V35.6C20 36.2637 20.5362 36.8 21.2 36.8H23.6713C23.9075 35.0225 24.98 33.5262 26.4913 32.6975Z" fill="white"/>
</svg>
